<svg xmlns="http://www.w3.org/2000/svg" width="35" height="34" fill="none"><path fill="#FF9501" stroke="#FF9501" stroke-width=".5" d="M15.297 25.453c-.922 0-1.672.72-1.672 1.606 0 .885.75 1.605 1.672 1.605.921 0 1.671-.72 1.671-1.605 0-.886-.75-1.606-1.671-1.606Zm0 2.236c-.383 0-.695-.282-.695-.63 0-.349.312-.63.695-.63.382 0 .694.281.694.63 0 .348-.31.63-.694.63Zm0-6.706c-.922 0-1.672.72-1.672 1.606 0 .885.75 1.604 1.672 1.604.921 0 1.671-.72 1.671-1.604 0-.886-.75-1.606-1.671-1.606Zm0 2.235c-.383 0-.695-.282-.695-.63 0-.347.312-.63.695-.63.382 0 .694.282.694.63.002.347-.31.63-.694.63Zm-4.474-2.235c-.934 0-1.695.72-1.695 1.606 0 .885.761 1.604 1.695 1.604s1.695-.72 1.695-1.604c0-.886-.76-1.606-1.695-1.606Zm0 2.235c-.389 0-.718-.288-.718-.63 0-.347.322-.63.718-.63.396 0 .718.282.718.63 0 .341-.328.63-.718.63Zm0 2.235c-.934 0-1.695.72-1.695 1.606 0 .885.761 1.605 1.695 1.605s1.695-.72 1.695-1.605c0-.886-.76-1.606-1.695-1.606Zm0 2.236c-.389 0-.718-.288-.718-.63 0-.343.33-.63.718-.63.39 0 .718.287.718.63 0 .342-.328.63-.718.63ZM13.05 6.312h9.041a.488.488 0 0 0 0-.975H13.05a.488.488 0 0 0 0 .975ZM24.206 7.57H10.839a1.71 1.71 0 0 0-1.707 1.707v4.268c0 .94.767 1.707 1.707 1.707h13.367a1.71 1.71 0 0 0 1.707-1.707V9.277a1.71 1.71 0 0 0-1.707-1.706Zm.731 5.975a.732.732 0 0 1-.731.731H10.839a.732.732 0 0 1-.731-.731V9.277c0-.403.328-.731.731-.731h13.367c.403 0 .731.328.731.731v4.268Zm.931 4.572c0-.885-.74-1.605-1.649-1.605-.91 0-1.648.72-1.648 1.605 0 .886.739 1.605 1.648 1.605.91 0 1.649-.719 1.649-1.605Zm-2.32 0c0-.346.302-.63.672-.63.371 0 .672.282.672.63 0 .347-.3.63-.672.63-.37 0-.671-.283-.671-.63Z"/><path fill="#FF9501" stroke="#FF9501" stroke-width=".5" d="m27.462 4.513-.717-.768-.146-.102c-.678-.303-1.79-.542-2.531-.542H10.932c-.742 0-1.855.239-2.531.542l-.765.725-.099.145C7.235 5.19 7 6.303 7 7.043v19.914c0 .742.236 1.854.538 2.532l.719.767.145.1c.678.304 1.79.543 2.53.543h13.136c.74 0 1.854-.239 2.53-.542l.764-.723.1-.145c.302-.68.539-1.79.539-2.532V7.044c.001-.742-.235-1.853-.538-2.531Zm-.436 22.444c0 .577-.19 1.493-.421 2.056l-.485.488c-.562.233-1.476.423-2.052.423H10.932c-.577 0-1.49-.19-2.052-.423l-.485-.488c-.23-.563-.421-1.479-.421-2.056V7.044c0-.577.189-1.493.42-2.056L8.88 4.5c.563-.233 1.476-.423 2.052-.423h13.135c.576 0 1.49.19 2.052.423l.485.49c.23.562.42 1.478.42 2.055v19.913h.002Z"/><path fill="#FF9501" stroke="#FF9501" stroke-width=".5" d="M24.242 20.983c-.92 0-1.67.767-1.67 1.707v4.267c0 .94.75 1.707 1.67 1.707.92 0 1.67-.767 1.67-1.707V22.69c0-.94-.75-1.707-1.67-1.707Zm.695 5.974c0 .404-.31.732-.694.732-.383 0-.693-.328-.693-.732V22.69c0-.403.31-.731.693-.731.383 0 .694.328.694.731v4.267Zm-5.166-5.974c-.908 0-1.648.72-1.648 1.606 0 .885.739 1.604 1.648 1.604.91 0 1.649-.72 1.649-1.604 0-.886-.74-1.606-1.649-1.606Zm0 2.235c-.37 0-.671-.282-.671-.63 0-.347.3-.63.671-.63.371 0 .672.282.672.63 0 .347-.3.63-.672.63Zm0-6.706c-.908 0-1.648.72-1.648 1.605 0 .886.739 1.605 1.648 1.605.91 0 1.649-.72 1.649-1.605s-.74-1.605-1.649-1.605Zm0 2.235c-.37 0-.671-.282-.671-.63 0-.346.3-.63.671-.63.371 0 .672.282.672.63 0 .347-.3.63-.672.63Zm0 6.706c-.908 0-1.648.72-1.648 1.606 0 .885.739 1.605 1.648 1.605.91 0 1.649-.72 1.649-1.605 0-.886-.74-1.606-1.649-1.606Zm0 2.236c-.37 0-.671-.282-.671-.63 0-.349.3-.63.671-.63.371 0 .672.281.672.63 0 .348-.3.63-.672.63Zm-4.474-11.177c-.922 0-1.672.72-1.672 1.605 0 .886.75 1.605 1.672 1.605.921 0 1.671-.72 1.671-1.605s-.75-1.605-1.671-1.605Zm0 2.235c-.383 0-.695-.282-.695-.63 0-.346.312-.63.695-.63.382 0 .694.282.694.63.002.347-.31.63-.694.63Z"/></svg>