<svg xmlns="http://www.w3.org/2000/svg" width="427" height="644" fill="none"><g clip-path="url(#a)" opacity=".2"><mask id="b" fill="#fff"><path d="M423.229 594.676h-66.83V474.141h24.271a3.4 3.4 0 0 0 3.399-3.403V288.403A3.405 3.405 0 0 0 380.67 285H45.838a3.398 3.398 0 0 0-3.399 3.403v34.575a3.404 3.404 0 0 0 3.4 3.403h30.253v19.261H8.106v-17.628a3.47 3.47 0 0 0-3.4-3.403h-385.073a3.47 3.47 0 0 0-3.399 3.403v142.928a3.403 3.403 0 0 0 3.399 3.403h41.608v120.331h-70.842a3.403 3.403 0 0 0-3.399 3.403v15.518a3.401 3.401 0 0 0 3.399 3.403h832.83a3.466 3.466 0 0 0 3.4-3.403v-15.518a3.403 3.403 0 0 0-3.4-3.403Zm-388.336 0h-49.698V500.48h49.834l-.136 94.196Zm3.399-101.002h-56.496a3.465 3.465 0 0 0-3.4 3.403v97.599h-16.18V474.141H56.58v120.535H41.827v-97.599a3.405 3.405 0 0 0-3.4-3.403h-.135Zm289.757 101.002H85.202V500.48H328.05v94.196Zm21.823 0h-15.025v-97.599a3.4 3.4 0 0 0-3.399-3.403H81.803a3.466 3.466 0 0 0-3.4 3.403v97.599H63.38V474.141h286.357l.136 120.535ZM49.306 291.806h328.169v175.529H49.305v-27.769H342.87a3.401 3.401 0 0 0 3.399-3.403V322.978a3.405 3.405 0 0 0-3.399-3.403H49.306v-27.769Zm145.15 34.575V432.76h-51.805V326.381h51.805Zm58.672 0V432.76h-51.873V326.381h51.873Zm58.604 0V432.76h-51.669V326.381h51.669Zm27.671 0v10.209h-20.872v-10.209h20.872Zm-20.872 45.396v-10.821h20.872v10.821h-20.872Zm20.872 6.806v10.754h-20.872v-10.754h20.872Zm-20.872 17.56h20.872v10.754h-20.872v-10.754Zm20.872-41.993h-20.872v-10.754h20.872v10.754Zm-20.872 59.553h20.872v19.057h-20.872v-19.057Zm-182.679-87.322V432.76H82.891V326.381h52.961ZM7.902 352.448h67.986v80.312h-30.05a3.397 3.397 0 0 0-3.399 3.403v31.172H7.902V352.448Zm-384.869-21.031H1.103v136.122h-378.07V331.417Zm45.006 142.928h68.531v93.651a3.398 3.398 0 1 0 6.798 0v-93.855h146.17v85.348a3.403 3.403 0 0 0 3.4 3.403 3.403 3.403 0 0 0 3.399-3.403v-85.348h59.216v120.535H-175.05v-91.337a3.398 3.398 0 1 0-6.798 0v91.337h-150.114V474.345Zm751.927 136.121h-826.167v-8.984h826.167v8.984Z"/></mask><path fill="#5F5C60" stroke="#FDFDFD" stroke-width="6" d="M423.229 594.676h-66.83V474.141h24.271a3.4 3.4 0 0 0 3.399-3.403V288.403A3.405 3.405 0 0 0 380.67 285H45.838a3.398 3.398 0 0 0-3.399 3.403v34.575a3.404 3.404 0 0 0 3.4 3.403h30.253v19.261H8.106v-17.628a3.47 3.47 0 0 0-3.4-3.403h-385.073a3.47 3.47 0 0 0-3.399 3.403v142.928a3.403 3.403 0 0 0 3.399 3.403h41.608v120.331h-70.842a3.403 3.403 0 0 0-3.399 3.403v15.518a3.401 3.401 0 0 0 3.399 3.403h832.83a3.466 3.466 0 0 0 3.4-3.403v-15.518a3.403 3.403 0 0 0-3.4-3.403Zm-388.336 0h-49.698V500.48h49.834l-.136 94.196Zm3.399-101.002h-56.496a3.465 3.465 0 0 0-3.4 3.403v97.599h-16.18V474.141H56.58v120.535H41.827v-97.599a3.405 3.405 0 0 0-3.4-3.403h-.135Zm289.757 101.002H85.202V500.48H328.05v94.196Zm21.823 0h-15.025v-97.599a3.4 3.4 0 0 0-3.399-3.403H81.803a3.466 3.466 0 0 0-3.4 3.403v97.599H63.38V474.141h286.357l.136 120.535ZM49.306 291.806h328.169v175.529H49.305v-27.769H342.87a3.401 3.401 0 0 0 3.399-3.403V322.978a3.405 3.405 0 0 0-3.399-3.403H49.306v-27.769Zm145.15 34.575V432.76h-51.805V326.381h51.805Zm58.672 0V432.76h-51.873V326.381h51.873Zm58.604 0V432.76h-51.669V326.381h51.669Zm27.671 0v10.209h-20.872v-10.209h20.872Zm-20.872 45.396v-10.821h20.872v10.821h-20.872Zm20.872 6.806v10.754h-20.872v-10.754h20.872Zm-20.872 17.56h20.872v10.754h-20.872v-10.754Zm20.872-41.993h-20.872v-10.754h20.872v10.754Zm-20.872 59.553h20.872v19.057h-20.872v-19.057Zm-182.679-87.322V432.76H82.891V326.381h52.961ZM7.902 352.448h67.986v80.312h-30.05a3.397 3.397 0 0 0-3.399 3.403v31.172H7.902V352.448Zm-384.869-21.031H1.103v136.122h-378.07V331.417Zm45.006 142.928h68.531v93.651a3.398 3.398 0 1 0 6.798 0v-93.855h146.17v85.348a3.403 3.403 0 0 0 3.4 3.403 3.403 3.403 0 0 0 3.399-3.403v-85.348h59.216v120.535H-175.05v-91.337a3.398 3.398 0 1 0-6.798 0v91.337h-150.114V474.345Zm751.927 136.121h-826.167v-8.984h826.167v8.984Z" mask="url(#b)"/><path fill="#5F5C60" stroke="#FDFDFD" stroke-width="3" d="m169.464 364.864-.006.005-.005.006c-.348.355-.82.56-1.316.57a1.967 1.967 0 0 1-1.368-.572 1.972 1.972 0 0 1-.001-2.73l18.414-18.365.006-.007a1.903 1.903 0 0 1 2.078-.416c.23.096.439.236.615.413a1.905 1.905 0 0 1 .001 2.658l-18.418 18.438Zm45.422 48.904c-.493 0-.969-.179-1.339-.503a1.975 1.975 0 0 1 .022-2.553l25.255-25.488.002-.001a1.914 1.914 0 0 1 3.264 1.358c0 .508-.202.996-.561 1.356l-25.27 25.298a2.036 2.036 0 0 1-1.373.533Zm60.59-21.915-.043-.001-.044.001a1.889 1.889 0 0 1-1.349-.515 1.974 1.974 0 0 1 .011-2.72l14.812-14.828a1.91 1.91 0 0 1 3.265 1.356c0 .509-.202.997-.561 1.356l-14.821 14.838-.008.008a1.693 1.693 0 0 1-1.262.505Zm-168.016 30.59-.002.002a1.96 1.96 0 0 1-1.381.579 1.817 1.817 0 0 1-1.302-.561l-.012-.012-.012-.012a1.912 1.912 0 0 1-.562-1.352 1.916 1.916 0 0 1 .562-1.351l.005-.005 10.742-10.753.004-.005a1.908 1.908 0 0 1 1.348-.562 1.91 1.91 0 0 1 1.342.556 1.975 1.975 0 0 1 .001 2.732l-10.733 10.744Zm-1.39-57.27h-.057l-.058.005a1.831 1.831 0 0 1-1.253-.369 1.909 1.909 0 0 1 .049-2.653l.008-.007 12.778-12.861.001-.001a1.914 1.914 0 0 1 3.265 1.358c0 .507-.201.993-.558 1.352l-12.776 12.586-.005.005-.006.006a1.966 1.966 0 0 1-1.388.579ZM318.786 517.14l1.061 1.06-1.061-1.06a1.9 1.9 0 0 1-1.343.557H93.633a1.905 1.905 0 0 1 0-3.806h223.793a1.966 1.966 0 0 1 1.916 1.917 1.9 1.9 0 0 1-.556 1.332Zm0 13.234 1.061-1.06-1.061 1.06a1.9 1.9 0 0 1 .556 1.332 1.968 1.968 0 0 1-1.916 1.917H93.633a1.905 1.905 0 0 1 0-3.806h223.81c.503 0 .986.2 1.343.557Zm0 18.55 1.061 1.06-1.061-1.06a1.9 1.9 0 0 1-1.343.557H93.633a1.903 1.903 0 0 1 0-3.806h223.793a1.968 1.968 0 0 1 1.916 1.917 1.899 1.899 0 0 1-.556 1.332Zm.556 14.566.001-.015 1.499.029c0-.902-.358-1.768-.995-2.406l-.505 2.392Zm0 0a1.902 1.902 0 0 0-.556-1.332l1.059-1.058-1.059 1.058a1.9 1.9 0 0 0-1.343-.557H93.633a1.905 1.905 0 0 0 0 3.806h223.793a1.964 1.964 0 0 0 1.34-.576c.357-.356.563-.836.576-1.341Zm-1.899 17.775H93.633a1.9 1.9 0 0 1-1.9-1.903 1.905 1.905 0 0 1 1.9-1.903h223.81c.503 0 .986.2 1.343.557l1.061-1.06-1.061 1.06a1.906 1.906 0 0 1 0 2.693l1.061 1.06-1.061-1.06c-.357.356-.84.556-1.343.556Z"/></g><path stroke="#333" stroke-width="2" d="M29 634.765h48.644V640H29zm15.504-595.33h18.671v5.235H44.504z"/><path stroke="#333" stroke-width="2" d="M32.101 631.664h5.235v3.168h-5.235zm37.207 0h5.235v3.168h-5.235z"/><path fill="#fff" stroke="#333" stroke-width="2" d="M44.504 448.724h18.671v186.108H44.504zm4.134-404.121h10.403v393.853H48.638z"/><path fill="#fff" stroke="#333" stroke-width="2" d="m48.359 438.389-3.468 10.403h17.897l-3.468-10.403H48.36Z"/><path fill="#FF9501" d="M64.36 186.205v-131.8c33.474 28.766 115.065-4.183 152.723-15.69 30.126-9.205 49.164-1.743 54.917 3.138v133.892c-.872-1.22-3.766-4.603-8.368-8.368-5.754-4.707-58.579-15.691-116.634 11.506-46.444 21.757-74.443 13.947-82.637 7.322Z"/><g clip-path="url(#c)"><path fill="#828282" d="M189.099 503.534c1.417-4.382 3.761-8.399 4.958-12.832 1.742-6.401.942-13.182 1.211-19.82-.01-1.657.288-3.301.878-4.848a14.11 14.11 0 0 0 .708-1.654c.297-1.024.135-2.148.382-3.164a6.36 6.36 0 0 1 1.771-2.7c-1.027-2.535-1.7-5.535-.347-7.876.644-1.139 1.707-2.027 2.16-3.251.921-2.464-.907-5.077-1.055-7.705a11.6 11.6 0 0 1 1.005-4.654 132.133 132.133 0 0 1 3.485-8.478 17.13 17.13 0 0 1 3.094-5.12 4.395 4.395 0 0 1 2.281-1.346c2.124-.365 3.201.472 4.575 1.69.878-1.776 2.592-1.611 4.228-1.225 1.636.387 2.925 1.676 3.987 3.029a16.602 16.602 0 0 1 1.947 2.957 34.735 34.735 0 0 1 1.693 4.827c1.006 3.136 2.443 6.122 3.35 9.308.906 3.187 1.253 6.638.064 9.71a2.054 2.054 0 0 0-.22.952 1.7 1.7 0 0 0 .418.838c.708.924 1.657 1.726 2.082 2.821.524 1.368.163 2.864.127 4.361a11.085 11.085 0 0 1 3.931 4.16 40.35 40.35 0 0 1 3.314 8.593 125.056 125.056 0 0 1 3.761 18.445 5.066 5.066 0 0 1-.298 3.201 1.707 1.707 0 0 0-.304.637c-.092.673.807 1.267.531 1.883a1.7 1.7 0 0 0-.83.459c-.228.23-.387.52-.459.837a8.773 8.773 0 0 0-.17 1.933 8.664 8.664 0 0 1-1.076 3.81c-.716 1.289-1.799 2.613-1.53 4.045a11.734 11.734 0 0 0-1.367-1.962 16.903 16.903 0 0 1-1.062 1.576 31.527 31.527 0 0 1-6.225 6.201c.432.823.835 1.661 1.204 2.513 3.696 8.671 2.5 18.617.8 27.926-1.7 9.308-3.824 18.846-1.806 28.062-2.125.637-4.249 1.26-6.374 1.84.034 1.754.214 3.503.539 5.227.453 2.377 1.189 4.697 1.536 7.096 1.346 9.187-2.932 18.109-5.184 27.109-.602 2.428-1.005 5.199.39 7.268.616.91 1.544 1.604 2.011 2.599.8 1.712 0 3.695-.538 5.493a28.207 28.207 0 0 0-1.417 8.742c0 1.382-1.232 1.483-1.961 1.375-1.155-.336-1.027-3.243-.482-6.917-.998 1.805-1.02 3.022-1.699 5.779a3.102 3.102 0 0 1-.709 1.432 3.35 3.35 0 0 1-1.749.752c-5.29 1.145-10.8 2.284-16.048.966l.496-.322c-.844.043-1.691.043-2.535 0-.928-2.148 5.977-6.323 6.14-9.523a190.76 190.76 0 0 0-.39-24.052c-.538-6.953-2.684-13.655-4.9-20.257a32.568 32.568 0 0 0-2.578-6.387c-1.006-1.704-2.337-3.265-2.904-5.17a7.91 7.91 0 0 1 .071-4.425 2.186 2.186 0 0 1-.609-.874 3.607 3.607 0 0 1 .17-2.012c.991-3.824.467-7.876.149-11.8a110.58 110.58 0 0 1 1.65-29.788c-.638-1.883-1.544-3.666-2.068-5.606-.786-2.9-.708-6.03-.397-9.051.149-1.554.213-3.444.524-5.213a10.254 10.254 0 0 1-1.954-1.174 1.173 1.173 0 0 1-.447-.523 1.285 1.285 0 0 1 .071-.723Zm23.208 100.325-.128 1.725c.05-.572.092-1.145.128-1.725Zm-4.044-27.403c.899 2.062 2.026 4.017 2.833 6.108a22.6 22.6 0 0 0-.8-3.488c-.347-1.102-.808-2.148-1.176-3.279h-1.154c.113.208.198.437.297.659Zm-9.235-123.518a6.711 6.711 0 0 0-.134 3.394 2.48 2.48 0 0 0 .871 1.547 8.306 8.306 0 0 1 1.324-.874 7.855 7.855 0 0 1 .205-6.444 3.761 3.761 0 0 0-1.4.928 3.833 3.833 0 0 0-.866 1.449Zm26.501 49.063c.228 1.77.728 3.492 1.48 5.106.977-1.354 1.962-2.707 2.939-4.067.382-.53.708-1.139 1.084-1.733-.298-.079-.595-.165-.907-.222a1.742 1.742 0 0 1-.079-1.192 1.72 1.72 0 0 1 .709-.956c.454-.33 1.034-.523 1.318-1.003.283-.479-.128-1.324-.631-1.088.935-.63.786-2.041.524-3.144-.481-2.026-.97-4.052-1.416-6.079-.29-1.224-.581-2.449-.935-3.652-.998 2.478-1.607 5.263-2.386 7.748-1.07 3.337-2.09 6.802-1.7 10.282Z"/></g><g clip-path="url(#d)"><path fill="#828282" d="M178.744 471.534c-1.067-4.489-9.038-24.74-10.721-28.881-.988-2.423-2.576-3.587-4.346-3.864a23.317 23.317 0 0 0-3.373-2.454c-2.268-1.441-5.531-3.737-7.498-7.189a16 16 0 0 1 .695-4.489c.348-1.142.633-2.302.854-3.475.221.554 1.082.546 1.493.119a2.75 2.75 0 0 0 .577-1.655c.126-1.156.395-3.167.521-4.339a2.38 2.38 0 0 0-.071-1.306 2.583 2.583 0 0 1-.277-.578 1.37 1.37 0 0 1 .127-.673c.735-2.13.521-4.473.142-6.698a50.06 50.06 0 0 0-1.967-7.806.566.566 0 0 1-.735.063 1.863 1.863 0 0 1-.537-.601 6.885 6.885 0 0 0-2.781-2.328 1.077 1.077 0 0 1-1.288.412c-.474-.143-.869-.452-1.335-.618a3.156 3.156 0 0 0-2.371.214 9.361 9.361 0 0 0-1.927 1.346c-.087-.238-.182-.467-.269-.705a11.405 11.405 0 0 0-2.931 2.573.93.93 0 0 0-1.264-.071c-.345.312-.65.666-.909 1.053-.419.483-.964.847-1.39 1.322a3.863 3.863 0 0 0-.79 1.916 59.356 59.356 0 0 0-.253 10.926c-.277-.341-.624-.713-1.059-.657-.434.055-.743.791-.79 1.322a14.542 14.542 0 0 0 .64 5.431c.276.886.79 1.868 1.691 2.05a.516.516 0 0 0 .363 0 .593.593 0 0 0 .213-.269l.459-.871c-.158 1.402.316 2.795.363 4.204a14.15 14.15 0 0 1-1.027 4.877l-.45 1.362c-.301.198-.593.38-.885.554-3.903 2.249-7.838 2.074-11.622 4.228-2.805.902-5.696 1.995-7.49 4.307-1.43 1.836-1.959 4.188-2.449 6.46a190.788 190.788 0 0 0-3.65 22.041c-.214 2.549-.356 5.249-1.802 7.355a7.216 7.216 0 0 0-1.351 2.225c.166.594 1.241.586 1.312 1.203 0 .277-.174.515-.316.792a3.435 3.435 0 0 0-.3 1.837c.068 2.734.134 5.465.197 8.194.261 10.553 1.446 21.012.174 31.494.977.26 1.969.461 2.971.602a22.617 22.617 0 0 1-.743 4.227c-.371 1.433-.79 2.866-1.011 4.331a9.209 9.209 0 0 0 0 3.571 4.359 4.359 0 0 0 2.006 2.858c1.028.562 2.292.578 3.279 1.211.608.47 1.166 1 1.667 1.583a2.791 2.791 0 0 0 1.731.871c.15 2.09.252 4.188.26 6.286a43.317 43.317 0 0 1-2.117 14.386 18.317 18.317 0 0 0-1.248 4.433c-.166 2.035.489 4.284-.617 5.994a5.194 5.194 0 0 0-.971 1.583c-.044.437-.02.877.071 1.306.158 1.481-.419 2.922-.909 4.323-2.599 7.418-3.05 15.383-3.611 23.229-.363 5.075-.987 10.601-4.582 14.195a1.781 1.781 0 0 1 1.509 1.536c-2.157-.42-3.492 2.557-2.876 4.663.537 1.837 1.857 3.365 2.56 5.138-.055.19-.103.372-.15.547a94.425 94.425 0 0 0-1.857 7.956 11.62 11.62 0 0 0-.284 3.294 4.22 4.22 0 0 0 1.422 2.897c.396.305.843.538 1.319.689a11.63 11.63 0 0 0 4.938.261 12.994 12.994 0 0 0 3.524-.791 5.533 5.533 0 0 0 2.757-2.249c.342-.627.57-1.311.672-2.019.529-3.325-.79-6.626-1.501-9.928v-.102h.371l5.76-9.715c.415-.553.63-1.232.608-1.924a11.237 11.237 0 0 0-.553-1.417c-.49-1.544.79-3 1.659-4.37a18.616 18.616 0 0 0 2.133-6.334c2.465-11.859 4.933-23.717 7.403-35.571.342-1.968.83-3.908 1.462-5.803.269-.721.577-1.433.877-2.146.577 4.853 1.193 9.707.956 14.576-.356 7.513-2.718 14.907-2.228 22.413.118 1.892.379 3.958-.703 5.542a8.643 8.643 0 0 0-.98 1.377 3.96 3.96 0 0 0-.126 2.098c.324 2.795.655 5.582.979 8.377.035.674.221 1.332.545 1.923a23.574 23.574 0 0 0-.481 1.647 39.655 39.655 0 0 0-1.209 9.754c2.37.926 4.89 1.868 7.418 1.52a3.6 3.6 0 0 1 .119-1.362c1.872.349 3.358 1.718 5.025 2.637a22.096 22.096 0 0 0 4.329 1.631 27.17 27.17 0 0 0 6.321 1.346 17.604 17.604 0 0 0 6.06-.871 3.15 3.15 0 0 0 1.453-.792 2.274 2.274 0 0 0-.181-2.834 6.846 6.846 0 0 0-2.552-1.679 41.534 41.534 0 0 1-7.324-4.196 17.42 17.42 0 0 1-4.741-4.813 3.496 3.496 0 0 0 1.296-2.993c-.126-1.045-.79-1.987-.79-3.04.055-1.584 1.675-2.676 1.975-4.22a6.13 6.13 0 0 0-.26-2.47 18.4 18.4 0 0 1 .15-8.503c.411-1.583 1.043-3.262.663-4.877-.181-.792-.584-1.473-.79-2.225-1.351-4.362 3.161-8.708 2.473-13.221-.166-1.164-.656-2.431 0-3.436a8.18 8.18 0 0 1 1.47-1.386c.916-.902 1.185-2.264 1.406-3.539.938-5.457 1.87-10.92 2.797-16.388 1.306-7.759 2.581-15.52 3.824-23.284.458-.214.924-.428 1.382-.665.404-.157.751-.433.996-.792.173-.481.219-.999.134-1.504-.324-7.331-.9-12.723-1.477-17.418.827.546 1.7 1.02 2.607 1.418 2.291-5.416 2.797-4.402 5.088-9.826 2.141-5.066 7.506-12.801 7.956-18.288.45-5.487.158-6.278-1.106-11.591Zm-53.503 10.617c-.348 4.648-2.189 8.867-3.532 13.269l.142-4.133c.05-3.125.258-6.246.624-9.35.269-1.979.664-3.958 1.114-5.882.079-.356.166-.72.253-1.077.853 2.819 1.533 5.447 1.399 7.173Zm41.755 2.312c-1.446 2.882-3.042 5.629-4.551 8.067-.095-3.119-.063-6.587.166-10.727.134-2.375.655-5.859 1.303-9.722 1.075 1.813 2.149 3.578 3.161 5.257a5.673 5.673 0 0 1 1.043 2.565 11.914 11.914 0 0 1-1.122 4.56Z"/></g><defs><clipPath id="a"><path fill="#fff" d="M427 285H0v340h427z"/></clipPath><clipPath id="c"><path fill="#fff" d="M243 420h-54v221h54z"/></clipPath><clipPath id="d"><path fill="#fff" d="M103 395h77v249h-77z"/></clipPath></defs></svg>