<svg xmlns="http://www.w3.org/2000/svg" width="49" height="50" fill="none"><path fill="#FF9501" stroke="#FF9501" stroke-width=".7" d="M23.998 49c-2.723 0-4.94-2.063-4.94-4.597 0-1.33-2.002-3.346-2.615-3.662-.316-.09-1.553.351-2.672 1.47-1.793 1.793-4.819 1.685-6.743-.239-1.926-1.924-2.032-4.95-.24-6.743.948-.948.962-3.77.751-4.419-.125-.226-1.232-.873-2.942-.873C2.063 29.937 0 27.723 0 25c0-2.723 2.063-4.937 4.597-4.937 1.326 0 3.345-2.005 3.662-2.62.082-.303-.349-1.551-1.469-2.67-.88-.878-1.333-2.076-1.273-3.373a5.108 5.108 0 0 1 1.51-3.37c1.926-1.924 4.952-2.032 6.744-.241.952.95 3.765.958 4.412.752.23-.127.876-1.235.876-2.944C19.059 3.063 21.275 1 23.998 1s4.939 2.063 4.939 4.597c0 1.332 2.002 3.348 2.615 3.664.305.055 1.552-.351 2.673-1.472 1.791-1.793 4.817-1.687 6.745.241a5.106 5.106 0 0 1 1.511 3.37c.062 1.297-.39 2.495-1.271 3.373-.95.95-.964 3.768-.753 4.415.125.228 1.233.876 2.946.876C45.937 20.064 48 22.277 48 25c0 2.724-2.063 4.937-4.597 4.937-1.33 0-3.349 2.006-3.663 2.62-.082.303.35 1.552 1.471 2.673.88.88 1.332 2.078 1.27 3.375a5.096 5.096 0 0 1-1.511 3.368c-1.927 1.924-4.951 2.036-6.745.239-.951-.953-3.764-.961-4.41-.753-.231.127-.878 1.233-.878 2.945 0 2.534-2.216 4.596-4.94 4.596ZM16.39 38.5c.389 0 .754.075 1.08.244 1.147.588 3.835 3.226 3.835 5.66 0 1.296 1.209 2.349 2.693 2.349s2.692-1.053 2.692-2.35c0-2.13.833-4.56 2.425-5.08 1.216-.399 4.96-.438 6.698 1.3.914.914 2.516.81 3.568-.24.52-.52.824-1.189.856-1.884.032-.656-.188-1.253-.614-1.681-1.509-1.51-2.64-3.81-1.882-5.288.59-1.148 3.227-3.84 5.662-3.84 1.296 0 2.35-1.207 2.35-2.69 0-1.483-1.054-2.69-2.35-2.69-2.13 0-4.56-.831-5.08-2.424-.4-1.218-.437-4.968 1.3-6.701.427-.428.646-1.023.614-1.679a2.866 2.866 0 0 0-.856-1.887c-1.051-1.047-2.65-1.156-3.568-.242-1.51 1.508-3.806 2.647-5.288 1.88-1.146-.587-3.835-3.225-3.835-5.66 0-1.297-1.208-2.35-2.692-2.35-1.485 0-2.693 1.053-2.693 2.35 0 2.13-.831 4.56-2.422 5.08-1.215.399-4.963.44-6.701-1.3-.92-.917-2.516-.805-3.566.242a2.862 2.862 0 0 0-.854 1.885c-.031.658.187 1.253.614 1.68 1.51 1.508 2.642 3.81 1.88 5.289-.478.925-3.087 3.837-5.66 3.837-1.295 0-2.35 1.207-2.35 2.69 0 1.483 1.055 2.69 2.35 2.69 2.133 0 4.562.834 5.08 2.427.396 1.22.433 4.97-1.299 6.7-.917.918-.81 2.518.24 3.566 1.05 1.05 2.647 1.16 3.565.24 1.176-1.176 2.834-2.122 4.208-2.122Z"/><path fill="#FF9501" stroke="#FF9501" stroke-width=".7" d="M24 35.528c-5.807 0-10.532-4.722-10.532-10.528S18.193 14.473 24 14.473c5.805 0 10.528 4.721 10.528 10.527 0 5.806-4.723 10.528-10.528 10.528Zm0-18.809c-4.568 0-8.285 3.715-8.285 8.281 0 4.566 3.717 8.281 8.285 8.281 4.566 0 8.281-3.715 8.281-8.28 0-4.567-3.715-8.282-8.28-8.282Z"/></svg>