<svg xmlns="http://www.w3.org/2000/svg" width="82" height="70" fill="none"><path fill="#FF9501" stroke="#fff" stroke-width=".5" d="M63.278 22.592v.25h11.478c.497 0 .976.25 1.268.666l5.433 7.775.005.007c.184.245.288.554.288.888v14.898c0 .852-.71 1.56-1.561 1.56h-3.931l-.052.182c-.912 3.204-3.859 5.541-7.317 5.541S62.483 52 61.57 48.819l-.052-.181H41.076l-.05.181c-.913 3.204-3.86 5.541-7.318 5.541-3.458 0-6.405-2.36-7.318-5.541l-.052-.181h-5.306a1.574 1.574 0 0 1-1.56-1.561V17.811c0-.852.708-1.561 1.56-1.561h40.686c.852 0 1.561.709 1.561 1.561v4.78Zm15.124 10.367h.482l-.278-.394-4.563-6.471-.075-.106H70.04v6.971h8.363Zm-55.56-13.563h-.25V45.54h3.597l.038-.204c.654-3.53 3.763-6.194 7.48-6.194 3.717 0 6.804 2.664 7.482 6.195l.039.203h18.928V19.396H22.842Zm53.552 25.94.039.203h2.243v-9.458H68.454c-.852 0-1.56-.71-1.56-1.561v-8.532h-3.616V41.62l.422-.4a7.575 7.575 0 0 1 5.213-2.08c3.716 0 6.803 2.664 7.481 6.195Zm-47.186 1.402c0 2.48 2.02 4.5 4.5 4.5s4.5-2.02 4.5-4.5-2.02-4.5-4.5-4.5-4.5 2.02-4.5 4.5Zm35.205 0c0 2.48 2.02 4.5 4.5 4.5s4.5-2.02 4.5-4.5-2.02-4.5-4.5-4.5-4.5 2.02-4.5 4.5ZM14.73 19.396H1.81c-.851 0-1.56-.709-1.56-1.56 0-.853.709-1.562 1.561-1.562h12.918c.852 0 1.561.71 1.561 1.561 0 .852-.709 1.561-1.56 1.561Zm-9.95 3.47h9.949c.874 0 1.56.707 1.56 1.56 0 .853-.708 1.562-1.56 1.562H4.78c-.852 0-1.561-.71-1.561-1.561 0-.852.709-1.561 1.56-1.561Zm3.671 6.592h6.278c.874 0 1.561.707 1.561 1.561 0 .852-.709 1.56-1.56 1.56H8.45a1.574 1.574 0 0 1-1.56-1.56c0-.852.708-1.561 1.56-1.561Zm4.105 6.592h2.173c.874 0 1.56.707 1.56 1.56 0 .853-.708 1.562-1.56 1.562h-2.173a1.574 1.574 0 0 1-1.561-1.561c0-.852.709-1.561 1.56-1.561Z"/></svg>