<svg xmlns="http://www.w3.org/2000/svg" width="55" height="48" fill="none"><path stroke="#FF9501" stroke-width="3" d="M25.258 23.042a5.123 5.123 0 0 0 1.248-2.147 5.2 5.2 0 0 0 .1-2.494 13.71 13.71 0 0 1 .134-6.206 13.792 13.792 0 0 1 3.492-6.186 13.371 13.371 0 0 1 6.064-3.556 12.348 12.348 0 0 1 4.844-.358l-4.711 4.83a5.11 5.11 0 0 0-1.087 1.656 5.197 5.197 0 0 0 0 3.912c.252.62.621 1.183 1.087 1.657l4.711 4.846a4.987 4.987 0 0 0 1.623 1.11 4.905 4.905 0 0 0 3.83 0 4.988 4.988 0 0 0 1.622-1.11l4.728-4.914a13.582 13.582 0 0 1-.45 4.914 13.807 13.807 0 0 1-3.476 6.14 13.39 13.39 0 0 1-6.012 3.55 12.674 12.674 0 0 1-6.127.137 4.894 4.894 0 0 0-2.451.098c-.797.24-1.522.68-2.11 1.28L16 45.79H3l22.258-22.749Z"/></svg>