<svg width="35" height="34" viewBox="0 0 35 34" fill="none" xmlns="http://www.w3.org/2000/svg">
<path d="M15.2966 25.4529C14.3748 25.4529 13.625 26.1735 13.625 27.0587C13.625 27.9438 14.3748 28.6644 15.2966 28.6644C16.2183 28.6644 16.9681 27.9438 16.9681 27.0587C16.9681 26.1735 16.2183 25.4529 15.2966 25.4529ZM15.2966 27.689C14.9137 27.689 14.6016 27.4074 14.6016 27.0587C14.6016 26.71 14.9137 26.4283 15.2966 26.4283C15.6794 26.4283 15.9915 26.71 15.9915 27.0587C15.9915 27.4074 15.6806 27.689 15.2966 27.689Z" fill="#FF9501" stroke="#FF9501" stroke-width="0.5"/>
<path d="M15.2966 20.9832C14.3748 20.9832 13.625 21.7038 13.625 22.5889C13.625 23.4741 14.3748 24.1934 15.2966 24.1934C16.2183 24.1934 16.9681 23.4729 16.9681 22.5889C16.9681 21.7025 16.2183 20.9832 15.2966 20.9832ZM15.2966 23.218C14.9137 23.218 14.6016 22.9364 14.6016 22.5889C14.6016 22.2414 14.9137 21.9586 15.2966 21.9586C15.6794 21.9586 15.9915 22.2402 15.9915 22.5889C15.9927 22.9352 15.6806 23.218 15.2966 23.218Z" fill="#FF9501" stroke="#FF9501" stroke-width="0.5"/>
<path d="M10.8231 20.9832C9.88922 20.9832 9.12842 21.7038 9.12842 22.5889C9.12842 23.4741 9.88922 24.1934 10.8231 24.1934C11.7571 24.1934 12.5179 23.4729 12.5179 22.5889C12.5179 21.7025 11.7571 20.9832 10.8231 20.9832ZM10.8231 23.218C10.4342 23.218 10.105 22.9303 10.105 22.5889C10.105 22.2414 10.4269 21.9586 10.8231 21.9586C11.2194 21.9586 11.5413 22.2402 11.5413 22.5889C11.5413 22.9291 11.2133 23.218 10.8231 23.218Z" fill="#FF9501" stroke="#FF9501" stroke-width="0.5"/>
<path d="M10.8231 25.4529C9.88922 25.4529 9.12842 26.1735 9.12842 27.0587C9.12842 27.9438 9.88922 28.6644 10.8231 28.6644C11.7571 28.6644 12.5179 27.9438 12.5179 27.0587C12.5179 26.1735 11.7571 25.4529 10.8231 25.4529ZM10.8231 27.689C10.4342 27.689 10.105 27.4013 10.105 27.0587C10.105 26.7161 10.4342 26.4283 10.8231 26.4283C11.2121 26.4283 11.5413 26.7161 11.5413 27.0587C11.5413 27.4013 11.2133 27.689 10.8231 27.689Z" fill="#FF9501" stroke="#FF9501" stroke-width="0.5"/>
<path d="M13.0497 6.31224H22.0915C22.361 6.31224 22.5792 6.09278 22.5792 5.82454C22.5792 5.55631 22.3597 5.33685 22.0915 5.33685H13.0497C12.7803 5.33685 12.562 5.55631 12.562 5.82454C12.562 6.09278 12.7803 6.31224 13.0497 6.31224Z" fill="#FF9501" stroke="#FF9501" stroke-width="0.5"/>
<path d="M24.2057 7.5705H10.8392C9.89922 7.5705 9.13232 8.33739 9.13232 9.27742V13.5447C9.13232 14.4847 9.89922 15.2516 10.8392 15.2516H24.2057C25.1457 15.2516 25.9126 14.4847 25.9126 13.5447V9.27742C25.9126 8.33739 25.1457 7.5705 24.2057 7.5705ZM24.9372 13.5447C24.9372 13.9483 24.6092 14.2763 24.2057 14.2763H10.8392C10.4357 14.2763 10.1077 13.9483 10.1077 13.5447V9.27742C10.1077 8.87385 10.4357 8.54588 10.8392 8.54588H24.2057C24.6092 8.54588 24.9372 8.87385 24.9372 9.27742V13.5447Z" fill="#FF9501" stroke="#FF9501" stroke-width="0.5"/>
<path d="M25.8676 18.1168C25.8676 17.2317 25.1287 16.5123 24.2192 16.5123C23.3097 16.5123 22.5708 17.2329 22.5708 18.1168C22.5708 19.0032 23.3097 19.7225 24.2192 19.7225C25.1287 19.7225 25.8676 19.0032 25.8676 18.1168ZM23.5486 18.1168C23.5486 17.7706 23.8498 17.4877 24.2204 17.4877C24.5911 17.4877 24.8922 17.7693 24.8922 18.1168C24.8922 18.4643 24.5911 18.7472 24.2204 18.7472C23.8498 18.7472 23.5486 18.4643 23.5486 18.1168Z" fill="#FF9501" stroke="#FF9501" stroke-width="0.5"/>
<path d="M27.4621 4.51265L26.7452 3.74454L26.5989 3.64334C25.921 3.33975 24.809 3.10078 24.0677 3.10078H10.9318C10.1905 3.10078 9.07732 3.33975 8.40065 3.64334L7.63619 4.36756L7.53743 4.51265C7.23507 5.19054 6.99854 6.30248 6.99854 7.04377V26.9574C6.99854 27.6987 7.23507 28.8107 7.53743 29.4886L8.25556 30.2555L8.40065 30.3567C9.07854 30.6602 10.1905 30.8992 10.9318 30.8992H24.0665C24.8078 30.8992 25.921 30.6602 26.5977 30.3567L27.3609 29.6337L27.4609 29.4886C27.7632 28.8095 27.9998 27.6987 27.9998 26.9574V7.04377C28.001 6.30248 27.7645 5.19054 27.4621 4.51265ZM27.0256 26.9574C27.0256 27.5341 26.8366 28.4498 26.605 29.0131L26.1197 29.5008C25.5576 29.7336 24.6444 29.9238 24.0677 29.9238H10.9318C10.3551 29.9238 9.44187 29.7349 8.87981 29.5008L8.39455 29.0131C8.16412 28.4498 7.97392 27.5341 7.97392 26.9574V7.04377C7.97392 6.46708 8.1629 5.55144 8.39455 4.98815L8.87981 4.49924C9.44309 4.26637 10.3563 4.07617 10.9318 4.07617H24.0665C24.6432 4.07617 25.5564 4.26515 26.1185 4.49924L26.6037 4.98815C26.8342 5.55144 27.0244 6.46708 27.0244 7.04377V26.9574H27.0256Z" fill="#FF9501" stroke="#FF9501" stroke-width="0.5"/>
<path d="M24.2421 20.9832C23.3216 20.9832 22.5718 21.7501 22.5718 22.6901V26.9574C22.5718 27.8974 23.3216 28.6643 24.2421 28.6643C25.1626 28.6643 25.9125 27.8974 25.9125 26.9574V22.6901C25.9125 21.7501 25.1626 20.9832 24.2421 20.9832ZM24.9371 26.9574C24.9371 27.361 24.6262 27.689 24.2433 27.689C23.8605 27.689 23.5496 27.361 23.5496 26.9574V22.6901C23.5496 22.2866 23.8605 21.9586 24.2433 21.9586C24.6262 21.9586 24.9371 22.2866 24.9371 22.6901V26.9574Z" fill="#FF9501" stroke="#FF9501" stroke-width="0.5"/>
<path d="M19.7714 20.9832C18.8631 20.9832 18.123 21.7038 18.123 22.5889C18.123 23.4741 18.8619 24.1934 19.7714 24.1934C20.681 24.1934 21.4198 23.4729 21.4198 22.5889C21.4198 21.7025 20.6798 20.9832 19.7714 20.9832ZM19.7714 23.218C19.4008 23.218 19.0997 22.9364 19.0997 22.5889C19.0997 22.2414 19.4008 21.9586 19.7714 21.9586C20.1421 21.9586 20.4432 22.2402 20.4432 22.5889C20.4432 22.9352 20.1421 23.218 19.7714 23.218Z" fill="#FF9501" stroke="#FF9501" stroke-width="0.5"/>
<path d="M19.7714 16.5123C18.8631 16.5123 18.123 17.2329 18.123 18.1168C18.123 19.0032 18.8619 19.7225 19.7714 19.7225C20.681 19.7225 21.4198 19.002 21.4198 18.1168C21.4198 17.2317 20.6798 16.5123 19.7714 16.5123ZM19.7714 18.7472C19.4008 18.7472 19.0997 18.4655 19.0997 18.1168C19.0997 17.7706 19.4008 17.4877 19.7714 17.4877C20.1421 17.4877 20.4432 17.7693 20.4432 18.1168C20.4432 18.4643 20.1421 18.7472 19.7714 18.7472Z" fill="#FF9501" stroke="#FF9501" stroke-width="0.5"/>
<path d="M19.7714 25.4529C18.8631 25.4529 18.123 26.1735 18.123 27.0587C18.123 27.9438 18.8619 28.6644 19.7714 28.6644C20.681 28.6644 21.4198 27.9438 21.4198 27.0587C21.4198 26.1735 20.6798 25.4529 19.7714 25.4529ZM19.7714 27.689C19.4008 27.689 19.0997 27.4074 19.0997 27.0587C19.0997 26.71 19.4008 26.4283 19.7714 26.4283C20.1421 26.4283 20.4432 26.71 20.4432 27.0587C20.4432 27.4074 20.1421 27.689 19.7714 27.689Z" fill="#FF9501" stroke="#FF9501" stroke-width="0.5"/>
<path d="M15.2966 16.5123C14.3748 16.5123 13.625 17.2329 13.625 18.1168C13.625 19.0032 14.3748 19.7225 15.2966 19.7225C16.2183 19.7225 16.9681 19.002 16.9681 18.1168C16.9681 17.2317 16.2183 16.5123 15.2966 16.5123ZM15.2966 18.7472C14.9137 18.7472 14.6016 18.4655 14.6016 18.1168C14.6016 17.7706 14.9137 17.4877 15.2966 17.4877C15.6794 17.4877 15.9915 17.7693 15.9915 18.1168C15.9927 18.4643 15.6806 18.7472 15.2966 18.7472Z" fill="#FF9501" stroke="#FF9501" stroke-width="0.5"/>
</svg>
