<svg width="35" height="34" viewBox="0 0 35 34" fill="none" xmlns="http://www.w3.org/2000/svg">
<path d="M15.2968 25.4529C14.3751 25.4529 13.6252 26.1735 13.6252 27.0587C13.6252 27.9438 14.3751 28.6644 15.2968 28.6644C16.2185 28.6644 16.9684 27.9438 16.9684 27.0587C16.9684 26.1735 16.2185 25.4529 15.2968 25.4529ZM15.2968 27.689C14.914 27.689 14.6018 27.4074 14.6018 27.0587C14.6018 26.71 14.914 26.4283 15.2968 26.4283C15.6796 26.4283 15.9918 26.71 15.9918 27.0587C15.9918 27.4074 15.6809 27.689 15.2968 27.689Z" fill="white" stroke="white" stroke-width="0.5"/>
<path d="M15.2968 20.9832C14.3751 20.9832 13.6252 21.7038 13.6252 22.5889C13.6252 23.4741 14.3751 24.1934 15.2968 24.1934C16.2185 24.1934 16.9684 23.4729 16.9684 22.5889C16.9684 21.7026 16.2185 20.9832 15.2968 20.9832ZM15.2968 23.2181C14.914 23.2181 14.6018 22.9364 14.6018 22.5889C14.6018 22.2415 14.914 21.9586 15.2968 21.9586C15.6796 21.9586 15.9918 22.2402 15.9918 22.5889C15.993 22.9352 15.6809 23.2181 15.2968 23.2181Z" fill="white" stroke="white" stroke-width="0.5"/>
<path d="M10.8234 20.9832C9.88946 20.9832 9.12866 21.7038 9.12866 22.5889C9.12866 23.4741 9.88946 24.1934 10.8234 24.1934C11.7573 24.1934 12.5181 23.4729 12.5181 22.5889C12.5181 21.7026 11.7573 20.9832 10.8234 20.9832ZM10.8234 23.2181C10.4345 23.2181 10.1053 22.9303 10.1053 22.5889C10.1053 22.2415 10.4271 21.9586 10.8234 21.9586C11.2196 21.9586 11.5415 22.2402 11.5415 22.5889C11.5415 22.9291 11.2135 23.2181 10.8234 23.2181Z" fill="white" stroke="white" stroke-width="0.5"/>
<path d="M10.8234 25.4529C9.88946 25.4529 9.12866 26.1735 9.12866 27.0587C9.12866 27.9438 9.88946 28.6644 10.8234 28.6644C11.7573 28.6644 12.5181 27.9438 12.5181 27.0587C12.5181 26.1735 11.7573 25.4529 10.8234 25.4529ZM10.8234 27.689C10.4345 27.689 10.1053 27.4013 10.1053 27.0587C10.1053 26.7161 10.4345 26.4283 10.8234 26.4283C11.2123 26.4283 11.5415 26.7161 11.5415 27.0587C11.5415 27.4013 11.2135 27.689 10.8234 27.689Z" fill="white" stroke="white" stroke-width="0.5"/>
<path d="M13.0499 6.31227H22.0918C22.3612 6.31227 22.5794 6.09281 22.5794 5.82458C22.5794 5.55634 22.36 5.33688 22.0918 5.33688H13.0499C12.7805 5.33688 12.5623 5.55634 12.5623 5.82458C12.5623 6.09281 12.7805 6.31227 13.0499 6.31227Z" fill="white" stroke="white" stroke-width="0.5"/>
<path d="M24.2059 7.5705H10.8395C9.89946 7.5705 9.13257 8.33739 9.13257 9.27742V13.5447C9.13257 14.4847 9.89946 15.2516 10.8395 15.2516H24.2059C25.1459 15.2516 25.9128 14.4847 25.9128 13.5447V9.27742C25.9128 8.33739 25.1459 7.5705 24.2059 7.5705ZM24.9374 13.5447C24.9374 13.9483 24.6095 14.2763 24.2059 14.2763H10.8395C10.4359 14.2763 10.108 13.9483 10.108 13.5447V9.27742C10.108 8.87385 10.4359 8.54588 10.8395 8.54588H24.2059C24.6095 8.54588 24.9374 8.87385 24.9374 9.27742V13.5447Z" fill="white" stroke="white" stroke-width="0.5"/>
<path d="M25.8676 18.1168C25.8676 17.2317 25.1287 16.5123 24.2192 16.5123C23.3097 16.5123 22.5708 17.2329 22.5708 18.1168C22.5708 19.0032 23.3097 19.7226 24.2192 19.7226C25.1287 19.7226 25.8676 19.0032 25.8676 18.1168ZM23.5486 18.1168C23.5486 17.7706 23.8498 17.4877 24.2204 17.4877C24.5911 17.4877 24.8922 17.7694 24.8922 18.1168C24.8922 18.4643 24.5911 18.7472 24.2204 18.7472C23.8498 18.7472 23.5486 18.4643 23.5486 18.1168Z" fill="white" stroke="white" stroke-width="0.5"/>
<path d="M27.4623 4.51267L26.7454 3.74455L26.5991 3.64336C25.9212 3.33977 24.8093 3.1008 24.068 3.1008H10.932C10.1907 3.1008 9.07757 3.33977 8.40089 3.64336L7.63644 4.36758L7.53768 4.51267C7.23531 5.19056 6.99878 6.3025 6.99878 7.04379V26.9575C6.99878 27.6988 7.23531 28.8107 7.53768 29.4886L8.25581 30.2555L8.40089 30.3567C9.07878 30.6603 10.1907 30.8992 10.932 30.8992H24.0668C24.8081 30.8992 25.9212 30.6603 26.5979 30.3567L27.3611 29.6337L27.4611 29.4886C27.7635 28.8095 28 27.6988 28 26.9575V7.04379C28.0012 6.3025 27.7647 5.19056 27.4623 4.51267ZM27.0258 26.9575C27.0258 27.5342 26.8369 28.4498 26.6052 29.0131L26.12 29.5008C25.5579 29.7336 24.6447 29.9238 24.068 29.9238H10.932C10.3553 29.9238 9.44211 29.7349 8.88005 29.5008L8.3948 29.0131C8.16436 28.4498 7.97416 27.5342 7.97416 26.9575V7.04379C7.97416 6.46709 8.16314 5.55145 8.3948 4.98817L8.88005 4.49926C9.44333 4.26638 10.3565 4.07618 10.932 4.07618H24.0668C24.6435 4.07618 25.5567 4.26516 26.1187 4.49926L26.604 4.98817C26.8344 5.55145 27.0246 6.46709 27.0246 7.04379V26.9575H27.0258Z" fill="white" stroke="white" stroke-width="0.5"/>
<path d="M24.2424 20.9832C23.3218 20.9832 22.572 21.7501 22.572 22.6901V26.9574C22.572 27.8975 23.3218 28.6644 24.2424 28.6644C25.1629 28.6644 25.9127 27.8975 25.9127 26.9574V22.6901C25.9127 21.7501 25.1629 20.9832 24.2424 20.9832ZM24.9373 26.9574C24.9373 27.361 24.6264 27.689 24.2436 27.689C23.8607 27.689 23.5498 27.361 23.5498 26.9574V22.6901C23.5498 22.2866 23.8607 21.9586 24.2436 21.9586C24.6264 21.9586 24.9373 22.2866 24.9373 22.6901V26.9574Z" fill="white" stroke="white" stroke-width="0.5"/>
<path d="M19.7714 20.9832C18.8631 20.9832 18.123 21.7038 18.123 22.5889C18.123 23.4741 18.8619 24.1934 19.7714 24.1934C20.681 24.1934 21.4198 23.4729 21.4198 22.5889C21.4198 21.7026 20.6798 20.9832 19.7714 20.9832ZM19.7714 23.2181C19.4008 23.2181 19.0997 22.9364 19.0997 22.5889C19.0997 22.2415 19.4008 21.9586 19.7714 21.9586C20.1421 21.9586 20.4432 22.2402 20.4432 22.5889C20.4432 22.9352 20.1421 23.2181 19.7714 23.2181Z" fill="white" stroke="white" stroke-width="0.5"/>
<path d="M19.7714 16.5123C18.8631 16.5123 18.123 17.2329 18.123 18.1168C18.123 19.0032 18.8619 19.7226 19.7714 19.7226C20.681 19.7226 21.4198 19.002 21.4198 18.1168C21.4198 17.2317 20.6798 16.5123 19.7714 16.5123ZM19.7714 18.7472C19.4008 18.7472 19.0997 18.4655 19.0997 18.1168C19.0997 17.7706 19.4008 17.4877 19.7714 17.4877C20.1421 17.4877 20.4432 17.7694 20.4432 18.1168C20.4432 18.4643 20.1421 18.7472 19.7714 18.7472Z" fill="white" stroke="white" stroke-width="0.5"/>
<path d="M19.7714 25.4529C18.8631 25.4529 18.123 26.1735 18.123 27.0587C18.123 27.9438 18.8619 28.6644 19.7714 28.6644C20.681 28.6644 21.4198 27.9438 21.4198 27.0587C21.4198 26.1735 20.6798 25.4529 19.7714 25.4529ZM19.7714 27.689C19.4008 27.689 19.0997 27.4074 19.0997 27.0587C19.0997 26.71 19.4008 26.4283 19.7714 26.4283C20.1421 26.4283 20.4432 26.71 20.4432 27.0587C20.4432 27.4074 20.1421 27.689 19.7714 27.689Z" fill="white" stroke="white" stroke-width="0.5"/>
<path d="M15.2968 16.5123C14.3751 16.5123 13.6252 17.2329 13.6252 18.1168C13.6252 19.0032 14.3751 19.7226 15.2968 19.7226C16.2185 19.7226 16.9684 19.002 16.9684 18.1168C16.9684 17.2317 16.2185 16.5123 15.2968 16.5123ZM15.2968 18.7472C14.914 18.7472 14.6018 18.4655 14.6018 18.1168C14.6018 17.7706 14.914 17.4877 15.2968 17.4877C15.6796 17.4877 15.9918 17.7694 15.9918 18.1168C15.993 18.4643 15.6809 18.7472 15.2968 18.7472Z" fill="white" stroke="white" stroke-width="0.5"/>
</svg>
