<svg width="82" height="70" viewBox="0 0 82 70" fill="none" xmlns="http://www.w3.org/2000/svg">
<path d="M63.2785 22.8419V22.5919V17.811C63.2785 16.959 62.5694 16.25 61.7175 16.25H21.0314C20.1795 16.25 19.4705 16.959 19.4705 17.811V47.076C19.4705 47.9279 20.1795 48.6369 21.0314 48.6369H26.1504H26.3388L26.3907 48.818C27.3028 51.9989 30.2503 54.3595 33.7081 54.3595C37.1667 54.3595 40.1133 52.0223 41.0254 48.8185L41.077 48.6369H41.2658H61.3312H61.5196L61.5715 48.818C62.4837 51.9989 65.4311 54.3595 68.8889 54.3595C72.3475 54.3595 75.2941 52.0223 76.2062 48.8185L76.2579 48.6369H76.4466H80.1893C81.0412 48.6369 81.7502 47.9279 81.7502 47.076V32.1779C81.7502 31.8438 81.6459 31.5346 81.4622 31.2896L81.4571 31.2829L81.4572 31.2828L76.0245 23.5079L63.2785 22.8419ZM63.2785 22.8419H63.5285M63.2785 22.8419H63.5285M63.5285 22.8419H74.7564C75.2533 22.8419 75.7326 23.091 76.0244 23.5077L63.5285 22.8419ZM78.4024 32.9591H78.8847L78.6067 32.565L74.0431 26.0938L73.9684 25.9879H73.8388H70.2894H70.0394V26.2379V32.7091V32.9591H70.2894H78.4024ZM22.8424 19.3961H22.5924V19.6461V45.2892V45.5392H22.8424H25.9814H26.1893L26.2272 45.3347C26.8815 41.8059 29.9906 39.1405 33.7081 39.1405C37.4243 39.1405 40.5111 41.8049 41.1893 45.3363L41.2283 45.5392H41.4348H59.9066H60.1566V45.2892V19.6461V19.3961H59.9066H22.8424ZM76.3943 45.3363L76.4332 45.5392H76.6398H78.4266H78.6766V45.2892V36.331V36.081H78.4266H68.4543C67.6024 36.081 66.8933 35.3719 66.8933 34.52V26.2379V25.9879H66.6433H63.5285H63.2785V26.2379V41.0395V41.6211L63.7005 41.2209C65.0564 39.935 66.9031 39.1405 68.913 39.1405C72.6292 39.1405 75.716 41.8049 76.3943 45.3363ZM29.2084 46.7379C29.2084 49.2182 31.2279 51.2376 33.7081 51.2376C36.1883 51.2376 38.2078 49.2182 38.2078 46.7379C38.2078 44.2577 36.1883 42.2382 33.7081 42.2382C31.2279 42.2382 29.2084 44.2577 29.2084 46.7379ZM64.4133 46.7379C64.4133 49.2182 66.4328 51.2376 68.913 51.2376C71.3933 51.2376 73.4127 49.2182 73.4127 46.7379C73.4127 44.2577 71.3933 42.2382 68.913 42.2382C66.4328 42.2382 64.4133 44.2577 64.4133 46.7379Z" fill="#FF9501" stroke="white" stroke-width="0.5"/>
<path d="M14.7291 19.3961H1.81095C0.959037 19.3961 0.25 18.6871 0.25 17.8352C0.25 16.9833 0.959037 16.2742 1.81095 16.2742H14.7291C15.581 16.2742 16.2901 16.9833 16.2901 17.8352C16.2901 18.6871 15.581 19.3961 14.7291 19.3961Z" fill="#FF9501" stroke="white" stroke-width="0.5"/>
<path d="M4.78068 22.8661H14.7289C15.6028 22.8661 16.2898 23.5729 16.2898 24.427C16.2898 25.279 15.5808 25.988 14.7289 25.988H4.78068C3.92876 25.988 3.21973 25.279 3.21973 24.427C3.21973 23.5751 3.92876 22.8661 4.78068 22.8661Z" fill="#FF9501" stroke="white" stroke-width="0.5"/>
<path d="M8.45085 29.4579H14.7288C15.6027 29.4579 16.2898 30.1647 16.2898 31.0188C16.2898 31.8708 15.5807 32.5798 14.7288 32.5798H8.45085C7.59893 32.5798 6.88989 31.8708 6.88989 31.0188C6.88989 30.1669 7.59893 29.4579 8.45085 29.4579Z" fill="#FF9501" stroke="white" stroke-width="0.5"/>
<path d="M12.5558 36.0497H14.729C15.6029 36.0497 16.2899 36.7566 16.2899 37.6107C16.2899 38.4626 15.5809 39.1717 14.729 39.1717H12.5558C11.7039 39.1717 10.9949 38.4626 10.9949 37.6107C10.9949 36.7588 11.7039 36.0497 12.5558 36.0497Z" fill="#FF9501" stroke="white" stroke-width="0.5"/>
</svg>
