<svg width="82" height="70" viewBox="0 0 82 70" fill="none" xmlns="http://www.w3.org/2000/svg">
<path d="M63.2782 22.5919V22.8419H63.5282H74.7561C75.2531 22.8419 75.7324 23.0911 76.0242 23.5079L81.457 31.2828L81.4569 31.2829L81.4619 31.2896C81.6457 31.5346 81.75 31.8438 81.75 32.1779V47.076C81.75 47.9279 81.0409 48.6369 80.189 48.6369H76.4464H76.2576L76.2059 48.8185C75.2939 52.0223 72.3472 54.3595 68.8886 54.3595C65.4309 54.3595 62.4834 51.9989 61.5713 48.818L61.5193 48.6369H61.3309H41.2656H41.0768L41.0251 48.8185C40.1131 52.0223 37.1664 54.3595 33.7078 54.3595C30.2501 54.3595 27.3026 51.9989 26.3904 48.818L26.3385 48.6369H26.1501H21.0312C20.1793 48.6369 19.4702 47.9279 19.4702 47.076V17.811C19.4702 16.959 20.1793 16.25 21.0312 16.25H61.7173C62.5692 16.25 63.2782 16.959 63.2782 17.811V22.5919ZM78.4022 32.9591H78.8844L78.6065 32.565L74.0429 26.0938L73.9682 25.9879H73.8386H70.2891H70.0391V26.2379V32.7091V32.9591H70.2891H78.4022ZM22.8421 19.3961H22.5921V19.6461V45.2892V45.5392H22.8421H25.9811H26.189L26.2269 45.3347C26.8813 41.8059 29.9904 39.1405 33.7078 39.1405C37.4241 39.1405 40.5109 41.8049 41.1891 45.3363L41.228 45.5392H41.4346H59.9063H60.1563V45.2892V19.6461V19.3961H59.9063H22.8421ZM76.394 45.3363L76.433 45.5392H76.6395H78.4263H78.6763V45.2892V36.331V36.081H78.4263H68.454C67.6021 36.081 66.8931 35.3719 66.8931 34.52V26.2379V25.9879H66.6431H63.5282H63.2782V26.2379V41.0395V41.6211L63.7003 41.2209C65.0562 39.935 66.9029 39.1405 68.9128 39.1405C72.629 39.1405 75.7158 41.8049 76.394 45.3363ZM29.2081 46.7379C29.2081 49.2182 31.2276 51.2376 33.7078 51.2376C36.1881 51.2376 38.2076 49.2182 38.2076 46.7379C38.2076 44.2577 36.1881 42.2382 33.7078 42.2382C31.2276 42.2382 29.2081 44.2577 29.2081 46.7379ZM64.4131 46.7379C64.4131 49.2182 66.4326 51.2376 68.9128 51.2376C71.393 51.2376 73.4125 49.2182 73.4125 46.7379C73.4125 44.2577 71.393 42.2382 68.9128 42.2382C66.4326 42.2382 64.4131 44.2577 64.4131 46.7379Z" fill="#FF9501" stroke="white" stroke-width="0.5"/>
<path d="M14.7291 19.3961H1.81095C0.959037 19.3961 0.25 18.687 0.25 17.8351C0.25 16.9832 0.959037 16.2742 1.81095 16.2742H14.7291C15.581 16.2742 16.2901 16.9832 16.2901 17.8351C16.2901 18.687 15.581 19.3961 14.7291 19.3961Z" fill="#FF9501" stroke="white" stroke-width="0.5"/>
<path d="M4.78068 22.866H14.7289C15.6028 22.866 16.2898 23.5728 16.2898 24.4269C16.2898 25.2788 15.5808 25.9879 14.7289 25.9879H4.78068C3.92876 25.9879 3.21973 25.2788 3.21973 24.4269C3.21973 23.575 3.92876 22.866 4.78068 22.866Z" fill="#FF9501" stroke="white" stroke-width="0.5"/>
<path d="M8.45109 29.458H14.7291C15.603 29.458 16.29 30.1649 16.29 31.019C16.29 31.8709 15.581 32.5799 14.7291 32.5799H8.45109C7.59917 32.5799 6.89014 31.8709 6.89014 31.019C6.89014 30.167 7.59917 29.458 8.45109 29.458Z" fill="#FF9501" stroke="white" stroke-width="0.5"/>
<path d="M12.5556 36.0498H14.7287C15.6026 36.0498 16.2897 36.7567 16.2897 37.6108C16.2897 38.4627 15.5806 39.1717 14.7287 39.1717H12.5556C11.7037 39.1717 10.9946 38.4627 10.9946 37.6108C10.9946 36.7588 11.7037 36.0498 12.5556 36.0498Z" fill="#FF9501" stroke="white" stroke-width="0.5"/>
</svg>
