<svg width="427" height="644" viewBox="0 0 427 644" fill="none" xmlns="http://www.w3.org/2000/svg">
<g clip-path="url(#clip0_56_276)">
<g opacity="0.2">
<mask id="path-1-inside-1_56_276" fill="white">
<path d="M423.229 594.676H356.399V474.141H380.67C381.572 474.141 382.436 473.782 383.074 473.144C383.711 472.506 384.069 471.64 384.069 470.738V288.403C384.069 287.5 383.711 286.635 383.074 285.997C382.436 285.359 381.572 285 380.67 285H45.8384C44.9369 285 44.0722 285.359 43.4348 285.997C42.7972 286.635 42.4391 287.5 42.4391 288.403V322.978C42.4391 323.88 42.7972 324.746 43.4348 325.384C44.0722 326.022 44.9369 326.381 45.8384 326.381H76.0923V345.642H8.10611V328.014C8.08871 327.117 7.72501 326.262 7.09125 325.627C6.45749 324.993 5.60291 324.629 4.70682 324.611H-380.367C-381.263 324.629 -382.117 324.993 -382.751 325.627C-383.385 326.262 -383.749 327.117 -383.766 328.014V470.942C-383.766 471.844 -383.408 472.71 -382.77 473.348C-382.133 473.986 -381.268 474.345 -380.367 474.345H-338.759V594.676H-409.601C-410.502 594.676 -411.367 595.035 -412.004 595.673C-412.642 596.311 -413 597.177 -413 598.079V613.597C-413 614.5 -412.642 615.365 -412.004 616.003C-411.367 616.641 -410.502 617 -409.601 617H423.229C424.126 616.983 424.98 616.618 425.614 615.984C426.248 615.35 426.611 614.494 426.629 613.597V598.079C426.629 597.177 426.271 596.311 425.633 595.673C424.996 595.035 424.131 594.676 423.229 594.676ZM34.8926 594.676H-14.8052V500.48H35.0287L34.8926 594.676ZM38.292 493.674H-18.2045C-19.1006 493.691 -19.9552 494.056 -20.5889 494.69C-21.2227 495.325 -21.5864 496.18 -21.6038 497.077V594.676H-37.7845V474.141H56.5802V594.676H41.8273V497.077C41.8273 496.175 41.4691 495.309 40.8316 494.671C40.1941 494.033 39.3295 493.674 38.4279 493.674H38.292ZM328.049 594.676H85.2024V500.48H328.049V594.676ZM349.872 594.676H334.847V497.077C334.847 496.175 334.489 495.309 333.852 494.671C333.214 494.033 332.35 493.674 331.448 493.674H81.8031C80.907 493.691 80.0525 494.056 79.4187 494.69C78.7849 495.325 78.4212 496.18 78.4038 497.077V594.676H63.3788V474.141H349.736L349.872 594.676ZM49.3057 291.806H377.475V467.335H49.3057V439.566H342.87C343.771 439.566 344.636 439.207 345.274 438.569C345.911 437.931 346.269 437.065 346.269 436.163V322.978C346.269 322.075 345.911 321.21 345.274 320.572C344.636 319.933 343.771 319.575 342.87 319.575H49.3057V291.806ZM194.456 326.381V432.76H142.651V326.381H194.456ZM253.128 326.381V432.76H201.255V326.381H253.128ZM311.732 326.381V432.76H260.063V326.381H311.732ZM339.403 326.381V336.59H318.531V326.381H339.403ZM318.531 371.777V360.956H339.403V371.777H318.531ZM339.403 378.583V389.337H318.531V378.583H339.403ZM318.531 396.143H339.403V406.897H318.531V396.143ZM339.403 354.15H318.531V343.396H339.403V354.15ZM318.531 413.703H339.403V432.76H318.531V413.703ZM135.852 326.381V432.76H82.8909V326.381H135.852ZM7.90216 352.448H75.8883V432.76H45.8384C44.9369 432.76 44.0722 433.118 43.4348 433.756C42.7972 434.395 42.4391 435.26 42.4391 436.163V467.335H7.90216V352.448ZM-376.967 331.417H1.10355V467.539H-376.967V331.417ZM-331.961 474.345H-263.43V567.996C-263.43 568.899 -263.072 569.764 -262.435 570.403C-261.797 571.041 -260.933 571.399 -260.031 571.399C-259.13 571.399 -258.265 571.041 -257.628 570.403C-256.99 569.764 -256.632 568.899 -256.632 567.996V474.141H-110.462V559.489C-110.462 560.391 -110.104 561.257 -109.466 561.895C-108.829 562.533 -107.964 562.892 -107.062 562.892C-106.161 562.892 -105.296 562.533 -104.659 561.895C-104.021 561.257 -103.663 560.391 -103.663 559.489V474.141H-44.4472V594.676H-175.049V503.339C-175.049 502.436 -175.407 501.571 -176.044 500.932C-176.682 500.294 -177.546 499.936 -178.448 499.936C-179.349 499.936 -180.214 500.294 -180.852 500.932C-181.489 501.571 -181.847 502.436 -181.847 503.339V594.676H-331.961V474.345ZM419.966 610.466H-406.201V601.482H419.966V610.466Z"/>
</mask>
<path d="M423.229 594.676H356.399V474.141H380.67C381.572 474.141 382.436 473.782 383.074 473.144C383.711 472.506 384.069 471.64 384.069 470.738V288.403C384.069 287.5 383.711 286.635 383.074 285.997C382.436 285.359 381.572 285 380.67 285H45.8384C44.9369 285 44.0722 285.359 43.4348 285.997C42.7972 286.635 42.4391 287.5 42.4391 288.403V322.978C42.4391 323.88 42.7972 324.746 43.4348 325.384C44.0722 326.022 44.9369 326.381 45.8384 326.381H76.0923V345.642H8.10611V328.014C8.08871 327.117 7.72501 326.262 7.09125 325.627C6.45749 324.993 5.60291 324.629 4.70682 324.611H-380.367C-381.263 324.629 -382.117 324.993 -382.751 325.627C-383.385 326.262 -383.749 327.117 -383.766 328.014V470.942C-383.766 471.844 -383.408 472.71 -382.77 473.348C-382.133 473.986 -381.268 474.345 -380.367 474.345H-338.759V594.676H-409.601C-410.502 594.676 -411.367 595.035 -412.004 595.673C-412.642 596.311 -413 597.177 -413 598.079V613.597C-413 614.5 -412.642 615.365 -412.004 616.003C-411.367 616.641 -410.502 617 -409.601 617H423.229C424.126 616.983 424.98 616.618 425.614 615.984C426.248 615.35 426.611 614.494 426.629 613.597V598.079C426.629 597.177 426.271 596.311 425.633 595.673C424.996 595.035 424.131 594.676 423.229 594.676ZM34.8926 594.676H-14.8052V500.48H35.0287L34.8926 594.676ZM38.292 493.674H-18.2045C-19.1006 493.691 -19.9552 494.056 -20.5889 494.69C-21.2227 495.325 -21.5864 496.18 -21.6038 497.077V594.676H-37.7845V474.141H56.5802V594.676H41.8273V497.077C41.8273 496.175 41.4691 495.309 40.8316 494.671C40.1941 494.033 39.3295 493.674 38.4279 493.674H38.292ZM328.049 594.676H85.2024V500.48H328.049V594.676ZM349.872 594.676H334.847V497.077C334.847 496.175 334.489 495.309 333.852 494.671C333.214 494.033 332.35 493.674 331.448 493.674H81.8031C80.907 493.691 80.0525 494.056 79.4187 494.69C78.7849 495.325 78.4212 496.18 78.4038 497.077V594.676H63.3788V474.141H349.736L349.872 594.676ZM49.3057 291.806H377.475V467.335H49.3057V439.566H342.87C343.771 439.566 344.636 439.207 345.274 438.569C345.911 437.931 346.269 437.065 346.269 436.163V322.978C346.269 322.075 345.911 321.21 345.274 320.572C344.636 319.933 343.771 319.575 342.87 319.575H49.3057V291.806ZM194.456 326.381V432.76H142.651V326.381H194.456ZM253.128 326.381V432.76H201.255V326.381H253.128ZM311.732 326.381V432.76H260.063V326.381H311.732ZM339.403 326.381V336.59H318.531V326.381H339.403ZM318.531 371.777V360.956H339.403V371.777H318.531ZM339.403 378.583V389.337H318.531V378.583H339.403ZM318.531 396.143H339.403V406.897H318.531V396.143ZM339.403 354.15H318.531V343.396H339.403V354.15ZM318.531 413.703H339.403V432.76H318.531V413.703ZM135.852 326.381V432.76H82.8909V326.381H135.852ZM7.90216 352.448H75.8883V432.76H45.8384C44.9369 432.76 44.0722 433.118 43.4348 433.756C42.7972 434.395 42.4391 435.26 42.4391 436.163V467.335H7.90216V352.448ZM-376.967 331.417H1.10355V467.539H-376.967V331.417ZM-331.961 474.345H-263.43V567.996C-263.43 568.899 -263.072 569.764 -262.435 570.403C-261.797 571.041 -260.933 571.399 -260.031 571.399C-259.13 571.399 -258.265 571.041 -257.628 570.403C-256.99 569.764 -256.632 568.899 -256.632 567.996V474.141H-110.462V559.489C-110.462 560.391 -110.104 561.257 -109.466 561.895C-108.829 562.533 -107.964 562.892 -107.062 562.892C-106.161 562.892 -105.296 562.533 -104.659 561.895C-104.021 561.257 -103.663 560.391 -103.663 559.489V474.141H-44.4472V594.676H-175.049V503.339C-175.049 502.436 -175.407 501.571 -176.044 500.932C-176.682 500.294 -177.546 499.936 -178.448 499.936C-179.349 499.936 -180.214 500.294 -180.852 500.932C-181.489 501.571 -181.847 502.436 -181.847 503.339V594.676H-331.961V474.345ZM419.966 610.466H-406.201V601.482H419.966V610.466Z" fill="#5F5C60" stroke="#FDFDFD" stroke-width="6" mask="url(#path-1-inside-1_56_276)"/>
<path d="M169.464 364.864L169.458 364.869L169.453 364.875C169.105 365.23 168.633 365.435 168.137 365.445C167.624 365.44 167.133 365.235 166.769 364.873C166.417 364.506 166.22 364.017 166.22 363.508C166.22 362.999 166.417 362.51 166.768 362.143L185.182 343.778L185.182 343.778L185.188 343.771C185.365 343.593 185.575 343.451 185.806 343.355C186.037 343.259 186.285 343.209 186.536 343.209C186.786 343.209 187.034 343.259 187.266 343.355C187.496 343.451 187.705 343.591 187.881 343.768C188.227 344.123 188.421 344.6 188.421 345.098C188.421 345.594 188.227 346.071 187.882 346.426L169.464 364.864Z" fill="#5F5C60" stroke="#FDFDFD" stroke-width="3"/>
<path d="M214.886 413.768C214.393 413.768 213.917 413.589 213.547 413.265C213.252 412.911 213.089 412.464 213.089 412.001C213.089 411.527 213.26 411.069 213.569 410.712L238.824 385.224C238.825 385.224 238.825 385.223 238.826 385.223C239.185 384.865 239.671 384.664 240.177 384.664C240.684 384.664 241.17 384.865 241.529 385.224C241.888 385.584 242.09 386.072 242.09 386.581C242.09 387.089 241.888 387.577 241.529 387.937L216.259 413.235C215.883 413.578 215.394 413.768 214.886 413.768Z" fill="#5F5C60" stroke="#FDFDFD" stroke-width="3"/>
<path d="M275.476 391.853L275.433 391.852L275.389 391.853C275.138 391.86 274.887 391.816 274.653 391.725C274.426 391.636 274.218 391.505 274.04 391.338C273.695 390.972 273.502 390.488 273.502 389.984C273.502 389.474 273.699 388.985 274.051 388.618L288.863 373.79C289.221 373.431 289.708 373.229 290.215 373.229C290.722 373.229 291.208 373.431 291.567 373.79C291.926 374.15 292.128 374.637 292.128 375.146C292.128 375.655 291.926 376.143 291.567 376.502L276.746 391.34L276.746 391.34L276.738 391.348C276.574 391.515 276.377 391.646 276.16 391.733C275.942 391.82 275.71 391.861 275.476 391.853Z" fill="#5F5C60" stroke="#FDFDFD" stroke-width="3"/>
<path d="M107.46 422.443L107.458 422.445C107.092 422.814 106.595 423.021 106.077 423.024C105.834 423.022 105.595 422.972 105.373 422.876C105.148 422.78 104.945 422.64 104.775 422.463L104.763 422.451L104.751 422.439C104.573 422.262 104.432 422.052 104.335 421.82C104.239 421.588 104.189 421.339 104.189 421.087C104.189 420.836 104.239 420.587 104.335 420.355C104.432 420.123 104.573 419.912 104.751 419.736L104.751 419.736L104.756 419.731L115.498 408.978L115.498 408.978L115.502 408.973C115.678 408.795 115.889 408.654 116.12 408.557C116.351 408.461 116.599 408.411 116.85 408.411C117.1 408.411 117.348 408.461 117.58 408.557C117.808 408.653 118.016 408.792 118.192 408.967C118.544 409.334 118.741 409.824 118.741 410.334C118.741 410.843 118.544 411.332 118.193 411.699L107.46 422.443Z" fill="#5F5C60" stroke="#FDFDFD" stroke-width="3"/>
<path d="M106.07 365.173L106.013 365.173L105.955 365.178C105.506 365.213 105.06 365.082 104.702 364.809C104.547 364.643 104.423 364.451 104.335 364.24C104.239 364.008 104.189 363.759 104.189 363.508C104.189 363.256 104.239 363.008 104.335 362.776C104.432 362.544 104.573 362.333 104.751 362.156L104.751 362.156L104.759 362.149L117.537 349.288C117.537 349.288 117.538 349.288 117.538 349.287C117.897 348.929 118.383 348.728 118.889 348.728C119.396 348.728 119.883 348.929 120.242 349.288C120.601 349.648 120.803 350.136 120.803 350.645C120.803 351.152 120.602 351.638 120.245 351.997L107.469 364.583L107.464 364.588L107.458 364.594C107.09 364.963 106.591 365.172 106.07 365.173Z" fill="#5F5C60" stroke="#FDFDFD" stroke-width="3"/>
<path d="M318.786 517.14L319.847 518.2L318.786 517.14C318.429 517.497 317.946 517.697 317.443 517.697H93.6327C93.1295 517.697 92.6466 517.497 92.2903 517.14C91.9339 516.783 91.7334 516.299 91.7334 515.794C91.7334 515.289 91.9339 514.804 92.2903 514.448C92.6466 514.091 93.1295 513.891 93.6327 513.891H317.426C317.93 513.904 318.409 514.11 318.766 514.467C319.123 514.824 319.329 515.304 319.342 515.808C319.339 516.308 319.139 516.787 318.786 517.14Z" fill="#5F5C60" stroke="#FDFDFD" stroke-width="3"/>
<path d="M318.786 530.374L319.847 529.314L318.786 530.374C319.139 530.727 319.339 531.206 319.342 531.706C319.329 532.21 319.123 532.69 318.766 533.047C318.409 533.404 317.93 533.61 317.426 533.623H93.6327C93.1295 533.623 92.6466 533.423 92.2903 533.066C91.9339 532.709 91.7334 532.225 91.7334 531.72C91.7334 531.215 91.9339 530.731 92.2903 530.374C92.6466 530.017 93.1295 529.817 93.6327 529.817H317.443C317.946 529.817 318.429 530.017 318.786 530.374Z" fill="#5F5C60" stroke="#FDFDFD" stroke-width="3"/>
<path d="M318.786 548.924L319.847 549.984L318.786 548.924C318.429 549.281 317.946 549.481 317.443 549.481H93.6327C93.1295 549.481 92.6466 549.281 92.2903 548.924C91.9339 548.568 91.7334 548.083 91.7334 547.578C91.7334 547.073 91.9339 546.589 92.2903 546.232C92.6466 545.875 93.1295 545.675 93.6327 545.675H317.426C317.93 545.688 318.41 545.894 318.766 546.251C319.123 546.608 319.329 547.088 319.342 547.592C319.339 548.093 319.139 548.571 318.786 548.924Z" fill="#5F5C60" stroke="#FDFDFD" stroke-width="3"/>
<path d="M319.342 563.49C319.342 563.485 319.343 563.48 319.343 563.475L320.842 563.504C320.842 562.602 320.484 561.736 319.847 561.098L319.342 563.49ZM319.342 563.49C319.339 562.99 319.139 562.512 318.786 562.158L319.845 561.1L318.786 562.158C318.429 561.801 317.946 561.601 317.443 561.601H93.6327C93.1295 561.601 92.6466 561.801 92.2903 562.158C91.9339 562.515 91.7334 562.999 91.7334 563.504C91.7334 564.01 91.9339 564.494 92.2903 564.851C92.6466 565.207 93.1295 565.407 93.6327 565.407H317.426C317.93 565.394 318.41 565.188 318.766 564.831C319.123 564.475 319.329 563.995 319.342 563.49Z" fill="#5F5C60" stroke="#FDFDFD" stroke-width="3"/>
<path d="M317.443 581.265H93.6327C93.1295 581.265 92.6466 581.065 92.2903 580.709C91.9339 580.352 91.7334 579.868 91.7334 579.362C91.7334 578.857 91.9339 578.373 92.2903 578.016C92.6466 577.659 93.1295 577.459 93.6327 577.459H317.443C317.946 577.459 318.429 577.659 318.786 578.016L319.847 576.956L318.786 578.016C319.142 578.373 319.342 578.857 319.342 579.362C319.342 579.868 319.142 580.352 318.786 580.709L319.847 581.769L318.786 580.709C318.429 581.065 317.946 581.265 317.443 581.265Z" fill="#5F5C60" stroke="#FDFDFD" stroke-width="3"/>
</g>
</g>
<rect x="29" y="634.765" width="48.6444" height="5.23491" stroke="#333333" stroke-width="2"/>
<rect x="44.5039" y="39.4354" width="18.6712" height="5.23491" stroke="#333333" stroke-width="2"/>
<rect x="32.1011" y="631.664" width="5.23491" height="3.16779" stroke="#333333" stroke-width="2"/>
<rect x="69.3081" y="631.664" width="5.23491" height="3.16779" stroke="#333333" stroke-width="2"/>
<rect x="44.5039" y="448.724" width="18.6712" height="186.108" fill="white" stroke="#333333" stroke-width="2"/>
<rect x="48.6377" y="44.6031" width="10.4027" height="393.853" fill="white" stroke="#333333" stroke-width="2"/>
<path d="M48.3589 438.389L44.8913 448.792H62.7877L59.3201 438.389H48.3589Z" fill="white" stroke="#333333" stroke-width="2"/>
<path d="M64.3608 186.205V54.4057C97.8342 83.1715 179.425 50.2216 217.083 38.7153C247.209 29.5103 266.247 36.972 272 41.8534V175.745C271.128 174.525 268.234 171.142 263.632 167.377C257.878 162.67 205.053 151.686 146.998 178.883C100.554 200.64 72.5548 192.83 64.3608 186.205Z" fill="#FF9501"/>
<g clip-path="url(#clip1_56_276)">
<path d="M189.099 503.534C190.516 499.152 192.86 495.135 194.057 490.702C195.799 484.301 194.999 477.52 195.268 470.882C195.258 469.225 195.556 467.581 196.146 466.034C196.417 465.499 196.653 464.946 196.854 464.38C197.151 463.356 196.989 462.232 197.236 461.216C197.586 460.176 198.196 459.246 199.007 458.516C197.98 455.981 197.307 452.981 198.66 450.64C199.304 449.501 200.367 448.613 200.82 447.389C201.741 444.925 199.913 442.312 199.765 439.684C199.775 438.079 200.117 436.493 200.77 435.03C201.833 432.166 202.994 429.34 204.255 426.552C204.98 424.674 206.027 422.941 207.349 421.432C207.956 420.758 208.751 420.288 209.63 420.086C211.754 419.721 212.831 420.558 214.205 421.776C215.083 420 216.797 420.165 218.433 420.551C220.069 420.938 221.358 422.227 222.42 423.58C223.172 424.493 223.825 425.484 224.367 426.537C225.049 428.102 225.615 429.715 226.06 431.364C227.066 434.5 228.503 437.486 229.41 440.672C230.316 443.859 230.663 447.31 229.474 450.382C229.325 450.677 229.25 451.003 229.254 451.334C229.313 451.648 229.457 451.938 229.672 452.172C230.38 453.096 231.329 453.898 231.754 454.993C232.278 456.361 231.917 457.857 231.881 459.354C233.529 460.369 234.885 461.803 235.812 463.514C237.24 466.24 238.352 469.123 239.126 472.107C240.841 478.15 242.098 484.316 242.887 490.552C243.138 491.623 243.033 492.748 242.589 493.753C242.445 493.941 242.341 494.158 242.285 494.39C242.193 495.063 243.092 495.657 242.816 496.273C242.502 496.344 242.214 496.503 241.986 496.732C241.758 496.962 241.599 497.252 241.527 497.569C241.399 498.205 241.342 498.854 241.357 499.502C241.297 500.84 240.928 502.144 240.281 503.312C239.565 504.601 238.482 505.925 238.751 507.357C238.363 506.658 237.905 506 237.384 505.395C237.06 505.94 236.705 506.466 236.322 506.971C234.543 509.322 232.448 511.409 230.097 513.172C230.529 513.995 230.932 514.833 231.301 515.685C234.997 524.356 233.801 534.302 232.101 543.611C230.401 552.919 228.277 562.457 230.295 571.673C228.17 572.31 226.046 572.933 223.921 573.513C223.955 575.267 224.135 577.016 224.46 578.74C224.913 581.117 225.649 583.437 225.996 585.836C227.342 595.023 223.064 603.945 220.812 612.945C220.21 615.373 219.807 618.144 221.202 620.213C221.818 621.123 222.746 621.817 223.213 622.812C224.013 624.524 223.213 626.507 222.675 628.305C221.746 631.124 221.267 634.075 221.258 637.047C221.258 638.429 220.026 638.53 219.297 638.422C218.142 638.086 218.27 635.179 218.815 631.505C217.817 633.31 217.795 634.527 217.116 637.284C217.008 637.816 216.764 638.31 216.407 638.716C215.908 639.131 215.301 639.392 214.658 639.468C209.368 640.613 203.858 641.752 198.61 640.434L199.106 640.112C198.262 640.155 197.415 640.155 196.571 640.112C195.643 637.964 202.548 633.789 202.711 630.589C203.087 622.571 202.957 614.538 202.321 606.537C201.783 599.584 199.637 592.882 197.421 586.28C196.789 584.064 195.925 581.923 194.843 579.893C193.837 578.189 192.506 576.628 191.939 574.723C191.541 573.272 191.566 571.735 192.01 570.298C191.739 570.062 191.529 569.762 191.401 569.424C191.265 568.751 191.324 568.052 191.571 567.412C192.562 563.588 192.038 559.536 191.72 555.612C190.922 545.653 191.477 535.631 193.37 525.824C192.732 523.941 191.826 522.158 191.302 520.218C190.516 517.318 190.594 514.188 190.905 511.167C191.054 509.613 191.118 507.723 191.429 505.954C190.737 505.637 190.081 505.243 189.475 504.78C189.277 504.655 189.122 504.472 189.028 504.257C188.982 504.014 189.006 503.763 189.099 503.534ZM212.307 603.859L212.179 605.584C212.229 605.012 212.271 604.439 212.307 603.859ZM208.263 576.456C209.162 578.518 210.289 580.473 211.096 582.564C210.922 581.381 210.654 580.215 210.296 579.076C209.949 577.974 209.488 576.928 209.12 575.797C208.738 575.797 208.348 575.797 207.966 575.797C208.079 576.005 208.164 576.234 208.263 576.456ZM199.028 452.938C198.693 454.038 198.647 455.208 198.894 456.332C198.984 456.939 199.295 457.49 199.765 457.879C200.178 457.546 200.621 457.253 201.089 457.005C200.666 455.979 200.465 454.872 200.501 453.76C200.536 452.649 200.807 451.558 201.294 450.561C200.765 450.76 200.286 451.077 199.894 451.489C199.502 451.9 199.206 452.396 199.028 452.938ZM225.529 502.001C225.757 503.771 226.257 505.493 227.009 507.107C227.986 505.753 228.971 504.4 229.948 503.04C230.33 502.51 230.656 501.901 231.032 501.307C230.734 501.228 230.437 501.142 230.125 501.085C229.959 500.71 229.931 500.287 230.046 499.893C230.162 499.499 230.414 499.159 230.755 498.937C231.209 498.607 231.789 498.414 232.073 497.934C232.356 497.455 231.945 496.61 231.442 496.846C232.377 496.216 232.228 494.805 231.966 493.702C231.485 491.676 230.996 489.65 230.55 487.623C230.26 486.399 229.969 485.174 229.615 483.971C228.617 486.449 228.008 489.234 227.229 491.719C226.159 495.056 225.139 498.521 225.529 502.001Z" fill="#828282"/>
</g>
<g clip-path="url(#clip2_56_276)">
<path d="M178.744 471.534C177.677 467.045 169.706 446.794 168.023 442.653C167.035 440.23 165.447 439.066 163.677 438.789C162.628 437.872 161.499 437.05 160.304 436.335C158.036 434.894 154.773 432.598 152.806 429.146C152.823 427.624 153.057 426.113 153.501 424.657C153.849 423.515 154.134 422.355 154.355 421.182C154.576 421.736 155.437 421.728 155.848 421.301C156.216 420.827 156.418 420.246 156.425 419.646C156.551 418.49 156.82 416.479 156.946 415.307C157.045 414.874 157.02 414.421 156.875 414.001C156.759 413.821 156.666 413.626 156.598 413.423C156.583 413.192 156.626 412.96 156.725 412.75C157.46 410.62 157.246 408.277 156.867 406.052C156.422 403.401 155.764 400.791 154.9 398.246C154.805 398.342 154.679 398.402 154.544 398.413C154.409 398.425 154.275 398.388 154.165 398.309C153.944 398.15 153.761 397.945 153.628 397.708C152.925 396.697 151.965 395.893 150.847 395.38C150.711 395.586 150.51 395.739 150.275 395.814C150.041 395.889 149.788 395.881 149.559 395.792C149.085 395.649 148.69 395.34 148.224 395.174C147.436 394.933 146.585 395.01 145.853 395.388C145.157 395.754 144.509 396.206 143.926 396.734C143.839 396.496 143.744 396.267 143.657 396.029C142.54 396.712 141.548 397.582 140.726 398.602C140.563 398.433 140.342 398.332 140.108 398.319C139.873 398.305 139.643 398.381 139.462 398.531C139.117 398.843 138.812 399.197 138.553 399.584C138.134 400.067 137.589 400.431 137.163 400.906C136.73 401.461 136.457 402.123 136.373 402.822C135.953 406.448 135.868 410.106 136.12 413.748C135.843 413.407 135.496 413.035 135.061 413.091C134.627 413.146 134.318 413.882 134.271 414.413C134.139 416.247 134.356 418.09 134.911 419.844C135.187 420.73 135.701 421.712 136.602 421.894C136.719 421.938 136.848 421.938 136.965 421.894C137.061 421.827 137.135 421.734 137.178 421.625L137.637 420.754C137.479 422.156 137.953 423.549 138 424.958C137.949 426.632 137.601 428.283 136.973 429.835L136.523 431.197C136.222 431.395 135.93 431.577 135.638 431.751C131.735 434 127.8 433.825 124.016 435.979C121.211 436.881 118.32 437.974 116.526 440.286C115.096 442.122 114.567 444.474 114.077 446.746C112.431 454.015 111.212 461.375 110.427 468.787C110.213 471.336 110.071 474.036 108.625 476.142C108.044 476.795 107.586 477.549 107.274 478.367C107.44 478.961 108.515 478.953 108.586 479.57C108.586 479.847 108.412 480.085 108.27 480.362C108.003 480.935 107.899 481.57 107.97 482.199C108.038 484.933 108.104 487.664 108.167 490.393C108.428 500.946 109.613 511.405 108.341 521.887C109.318 522.147 110.31 522.348 111.312 522.489C111.199 523.918 110.95 525.334 110.569 526.716C110.198 528.149 109.779 529.582 109.558 531.047C109.325 532.226 109.325 533.439 109.558 534.618C109.677 535.207 109.917 535.765 110.262 536.257C110.608 536.749 111.051 537.164 111.564 537.476C112.592 538.038 113.856 538.054 114.843 538.687C115.451 539.157 116.009 539.687 116.51 540.27C116.965 540.758 117.579 541.067 118.241 541.141C118.391 543.231 118.493 545.329 118.501 547.427C118.611 552.308 117.895 557.172 116.384 561.813C115.783 563.232 115.364 564.722 115.136 566.246C114.97 568.281 115.625 570.53 114.519 572.24C114.103 572.705 113.774 573.241 113.548 573.823C113.504 574.26 113.528 574.7 113.619 575.129C113.777 576.61 113.2 578.051 112.71 579.452C110.111 586.87 109.66 594.835 109.099 602.681C108.736 607.756 108.112 613.282 104.517 616.876C104.902 616.932 105.257 617.112 105.53 617.389C105.802 617.667 105.977 618.026 106.026 618.412C103.869 617.992 102.534 620.969 103.15 623.075C103.687 624.912 105.007 626.44 105.71 628.213C105.655 628.403 105.607 628.585 105.56 628.76C104.823 631.399 104.204 634.051 103.703 636.716C103.452 637.795 103.356 638.904 103.419 640.01C103.491 641.126 104.002 642.169 104.841 642.907C105.237 643.212 105.684 643.445 106.16 643.596C107.769 644.036 109.453 644.125 111.098 643.857C112.304 643.759 113.49 643.492 114.622 643.066C115.763 642.641 116.732 641.85 117.379 640.817C117.721 640.19 117.949 639.506 118.051 638.798C118.58 635.473 117.261 632.172 116.55 628.87V628.768H116.921L122.681 619.053C123.096 618.5 123.311 617.821 123.289 617.129C123.137 616.645 122.952 616.171 122.736 615.712C122.246 614.168 123.526 612.712 124.395 611.342C125.482 609.377 126.205 607.231 126.528 605.008C128.993 593.149 131.461 581.291 133.931 569.437C134.273 567.469 134.761 565.529 135.393 563.634C135.662 562.913 135.97 562.201 136.27 561.488C136.847 566.341 137.463 571.195 137.226 576.064C136.87 583.577 134.508 590.971 134.998 598.477C135.116 600.369 135.377 602.435 134.295 604.019C133.924 604.445 133.596 604.906 133.315 605.396C133.085 606.071 133.041 606.796 133.189 607.494C133.513 610.289 133.844 613.076 134.168 615.871C134.203 616.545 134.389 617.203 134.713 617.794C134.532 618.333 134.374 618.887 134.232 619.441C133.426 622.63 133.02 625.906 133.023 629.195C135.393 630.121 137.913 631.063 140.441 630.715C140.393 630.258 140.434 629.795 140.56 629.353C142.432 629.702 143.918 631.071 145.585 631.99C146.967 632.684 148.418 633.23 149.914 633.621C151.96 634.32 154.082 634.771 156.235 634.967C158.29 635.033 160.341 634.738 162.295 634.096C162.841 633.966 163.343 633.693 163.748 633.304C164.044 632.881 164.187 632.37 164.154 631.855C164.121 631.34 163.914 630.851 163.567 630.47C162.853 629.725 161.981 629.151 161.015 628.791C158.438 627.645 155.984 626.239 153.691 624.595C151.812 623.316 150.202 621.681 148.95 619.782C149.393 619.426 149.743 618.968 149.969 618.446C150.194 617.925 150.29 617.356 150.246 616.789C150.12 615.744 149.456 614.802 149.456 613.749C149.511 612.165 151.131 611.073 151.431 609.529C151.514 608.696 151.425 607.856 151.171 607.059C150.556 604.252 150.608 601.339 151.321 598.556C151.732 596.973 152.364 595.294 151.984 593.679C151.803 592.887 151.4 592.206 151.194 591.454C149.843 587.092 154.355 582.746 153.667 578.233C153.501 577.069 153.011 575.802 153.667 574.797C154.098 574.276 154.592 573.81 155.137 573.411C156.053 572.509 156.322 571.147 156.543 569.872C157.481 564.415 158.413 558.952 159.34 553.484C160.646 545.725 161.921 537.964 163.164 530.2C163.622 529.986 164.088 529.772 164.546 529.535C164.95 529.378 165.297 529.102 165.542 528.743C165.715 528.262 165.761 527.744 165.676 527.239C165.352 519.908 164.776 514.516 164.199 509.821C165.026 510.367 165.899 510.841 166.806 511.239C169.097 505.823 169.603 506.837 171.894 501.413C174.035 496.347 179.4 488.612 179.85 483.125C180.3 477.638 180.008 476.847 178.744 471.534ZM125.241 482.151C124.893 486.799 123.052 491.018 121.709 495.42L121.851 491.287C121.901 488.162 122.109 485.041 122.475 481.937C122.744 479.958 123.139 477.979 123.589 476.055C123.668 475.699 123.755 475.335 123.842 474.978C124.695 477.797 125.375 480.425 125.241 482.151ZM166.996 484.463C165.55 487.345 163.954 490.092 162.445 492.53C162.35 489.411 162.382 485.943 162.611 481.803C162.745 479.428 163.266 475.944 163.914 472.081C164.989 473.894 166.063 475.659 167.075 477.338C167.629 478.093 167.987 478.974 168.118 479.903C168.05 481.482 167.669 483.033 166.996 484.463Z" fill="#828282"/>
</g>
<defs>
<clipPath id="clip0_56_276">
<rect width="427" height="340" fill="white" transform="matrix(-1 0 0 1 427 285)"/>
</clipPath>
<clipPath id="clip1_56_276">
<rect width="54" height="221" fill="white" transform="matrix(-1 0 0 1 243 420)"/>
</clipPath>
<clipPath id="clip2_56_276">
<rect width="77" height="249" fill="white" transform="translate(103 395)"/>
</clipPath>
</defs>
</svg>
