<svg width="49" height="50" viewBox="0 0 49 50" fill="none" xmlns="http://www.w3.org/2000/svg">
<path d="M23.9978 49C21.2747 49 19.0588 46.9374 19.0588 44.4032C19.0588 43.0734 17.0564 41.0569 16.4433 40.741C16.1274 40.6512 14.8898 41.092 13.7707 42.2111C11.9782 44.0036 8.95226 43.8964 7.02794 41.9721C5.10245 40.0477 4.99607 37.0221 6.78888 35.2293C7.73567 34.2813 7.74986 31.4595 7.53916 30.81C7.41417 30.584 6.30721 29.9368 4.59684 29.9368C2.06261 29.9371 0 27.7229 0 25.0001C0 22.2774 2.06261 20.0632 4.59684 20.0632C5.92335 20.0632 7.94193 18.0576 8.25901 17.4433C8.34116 17.1404 7.91002 15.8919 6.79006 14.7728C5.90917 13.8952 5.45705 12.6972 5.51733 11.4002C5.57555 10.1429 6.11189 8.94725 7.02706 8.03001C8.95255 6.1057 11.9794 5.99813 13.771 7.78859C14.7234 8.73863 17.5363 8.74749 18.1835 8.54123C18.4128 8.41387 19.059 7.30603 19.059 5.59655C19.0588 3.06261 21.2747 1 23.9978 1C26.7208 1 28.9368 3.06261 28.9368 5.59684C28.9368 6.92867 30.9391 8.94518 31.5523 9.26108C31.8573 9.31604 33.1037 8.91002 34.2248 7.78888C36.0165 5.99636 39.0421 6.10156 40.9697 8.03031C41.8858 8.94755 42.4233 10.1434 42.4815 11.4005C42.5429 12.6972 42.0908 13.8954 41.2099 14.7731C40.2599 15.7231 40.2457 18.5405 40.4573 19.1879C40.5823 19.416 41.6904 20.0635 43.4029 20.0635C45.9371 20.0635 47.9997 22.2774 47.9997 25.0004C47.9997 27.7235 45.9371 29.9374 43.4029 29.9374C42.0722 29.9374 40.0545 31.943 39.7398 32.5573C39.6577 32.8602 40.0897 34.1087 41.2111 35.2299C42.0911 36.1099 42.5429 37.3078 42.4815 38.6045C42.4233 39.8619 41.8858 41.0575 40.9697 41.9726C39.0433 43.897 36.0185 44.009 34.2248 42.2117C33.2736 41.2593 30.4607 41.2507 29.8145 41.4591C29.584 41.5864 28.9368 42.6922 28.9368 44.4037C28.9371 46.9377 26.7208 49 23.9978 49ZM16.3895 38.5008C16.7789 38.5008 17.1442 38.5752 17.4701 38.7443C18.6167 39.3323 21.3055 41.9697 21.3055 44.4032C21.3055 45.6998 22.5135 46.753 23.9978 46.753C25.4821 46.753 26.6901 45.6998 26.6901 44.4032C26.6901 42.2726 27.5228 39.8435 29.1147 39.3235C30.3313 38.9242 34.0759 38.8846 35.8135 40.6225C36.7275 41.5374 38.3291 41.4322 39.3811 40.3834C39.9012 39.8633 40.2049 39.194 40.2369 38.4987C40.2688 37.8427 40.0492 37.2458 39.6225 36.8179C38.114 35.3082 36.9828 33.0089 37.741 31.5299C38.3303 30.3824 40.9676 27.6901 43.4032 27.6901C44.6989 27.6901 45.753 26.4833 45.753 25.0001C45.753 23.517 44.6986 22.3102 43.4032 22.3102C41.2726 22.3102 38.8436 21.4786 38.3226 19.8856C37.9234 18.6678 37.8858 14.9179 39.6237 13.1845C40.0504 12.7566 40.2688 12.162 40.2369 11.506C40.2049 10.8083 39.9 10.139 39.3811 9.61893C38.33 8.57226 36.7316 8.46263 35.8135 9.3775C34.3037 10.8849 32.0065 12.0237 30.5254 11.2578C29.3789 10.6697 26.6901 8.03238 26.6901 5.59684C26.6901 4.30018 25.4821 3.247 23.9978 3.247C22.5135 3.247 21.3055 4.30018 21.3055 5.59684C21.3055 7.72742 20.4739 10.1564 18.8829 10.6765C17.6684 11.0758 13.9197 11.1174 12.1818 9.3775C11.2625 8.46026 9.66619 8.57226 8.61627 9.61893C8.09737 10.139 7.79359 10.808 7.76168 11.5036C7.73095 12.162 7.94932 12.7566 8.37603 13.1845C9.88664 14.6918 11.0178 16.9935 10.2563 18.4725C9.77789 19.3983 7.16919 22.3102 4.59655 22.3102C3.30077 22.3102 2.24671 23.517 2.24671 25.0001C2.24671 26.4833 3.30106 27.6901 4.59655 27.6901C6.72919 27.6901 9.15822 28.524 9.67624 30.1168C10.0722 31.3366 10.1086 35.0865 8.37721 36.8179C7.45997 37.7351 7.56753 39.3347 8.61627 40.3834C9.66619 41.4322 11.2637 41.5421 12.1818 40.6225C13.3582 39.4467 15.016 38.5008 16.3895 38.5008Z" fill="#FF9501" stroke="#FF9501" stroke-width="0.7"/>
<path d="M24.0003 35.5278C18.1934 35.5278 13.4683 30.8059 13.4683 25.0002C13.4683 19.1944 18.1934 14.4726 24.0003 14.4726C29.8051 14.4726 34.5279 19.1944 34.5279 25.0002C34.5279 30.8059 29.8048 35.5278 24.0003 35.5278ZM24.0003 16.7193C19.4321 16.7193 15.715 20.4341 15.715 25.0002C15.715 29.5663 19.4318 33.2811 24.0003 33.2811C28.5664 33.2811 32.2812 29.5663 32.2812 25.0002C32.2812 20.4341 28.5664 16.7193 24.0003 16.7193Z" fill="#FF9501" stroke="#FF9501" stroke-width="0.7"/>
</svg>
