<svg width="55" height="48" viewBox="0 0 55 48" fill="none" xmlns="http://www.w3.org/2000/svg">
<path d="M25.2581 23.0422C25.8418 22.4431 26.2706 21.7054 26.5059 20.8952C26.7413 20.085 26.7759 19.2278 26.6066 18.4006C26.1759 16.3497 26.2215 14.2244 26.7397 12.1948C27.3489 9.85403 28.5538 7.71968 30.2322 6.00856C31.9106 4.29745 34.0026 3.07055 36.2956 2.45252C37.8724 2.01381 39.5178 1.89255 41.1401 2.09548L36.4287 6.9241C35.9631 7.39796 35.5937 7.96104 35.3416 8.58103C35.0896 9.20103 34.9598 9.86574 34.9598 10.5371C34.9598 11.2084 35.0896 11.8731 35.3416 12.4931C35.5937 13.1131 35.9631 13.6762 36.4287 14.15L41.1401 18.9956C41.6041 19.4712 42.1554 19.8485 42.7625 20.1059C43.3695 20.3633 44.0204 20.4959 44.6777 20.4959C45.335 20.4959 45.9859 20.3633 46.593 20.1059C47.2 19.8485 47.7514 19.4712 48.2154 18.9956L52.9433 14.082C53.0947 15.7342 52.9422 17.4007 52.4938 18.9956C51.8812 21.318 50.6824 23.4354 49.0171 25.1361C47.3518 26.8368 45.2786 28.0612 43.0046 28.6869C41.0026 29.2327 38.9015 29.2794 36.8782 28.8229C36.0657 28.647 35.2231 28.6808 34.4266 28.9213C33.6302 29.1617 32.905 29.6013 32.3167 30.2001L16 45.7911H3L25.2581 23.0422Z" stroke="#FF9501" stroke-width="3"/>
</svg>
